 <svg version="1.1" style="overflow: hidden; display: block;" width="500" height="350"><defs></defs><g id="two-0" transform="matrix(1 0 0 1 0 0)" opacity="1"><path transform="matrix(1 0 0 1 150 150)" id="two-1" d="M 49.019237 144.90381 C 49.019237 144.90381 52.561773 143.781939 58.110913 141.50308 C 60.885484 140.36365 64.27188 138.845676 66.968597 137.532566 C 69.665314 136.219456 72.948617 134.48976 75.556622 133.008258 C 78.164627 131.526755 81.331616 129.592301 83.840408 127.948372 C 86.349199 126.304442 89.387121 124.17302 91.786597 122.373283 C 94.186073 120.573546 97.082695 118.253738 99.363194 116.30544 C 101.643693 114.357142 104.387352 111.85829 106.539691 109.769277 C 108.69203 107.680263 111.271678 105.012428 113.28719 102.791111 C 115.302702 100.569793 117.707952 97.743718 119.578521 95.399041 C 121.449091 93.054364 123.670257 90.081429 125.388352 87.622834 C 127.106447 85.164238 129.134586 82.056413 130.693288 79.4938 C 132.25199 76.931186 134.078936 73.700985 135.471969 71.044672 C 136.865002 68.388359 138.483397 65.04879 139.705152 62.309473 C 140.926906 59.570156 142.330235 56.134666 143.375791 53.323376 C 144.421347 50.512086 145.603958 46.994507 146.469107 44.122564 C 147.334255 41.25062 148.291386 37.665118 148.972643 34.744086 C 149.653899 31.823054 150.381697 28.184065 150.876319 25.225706 C 151.370941 22.267347 151.866474 18.589525 152.172469 15.605751 C 152.478464 12.621977 152.739738 8.920131 152.855875 5.922957 C 152.972011 2.925783 152.997973 -0.785181 152.923784 -3.783687 C 152.849594 -6.782192 152.64014 -10.487332 152.375922 -13.475095 C 152.111705 -16.462858 151.667678 -20.147253 151.214497 -23.112243 C 150.761316 -26.077234 150.084504 -29.726049 149.444184 -32.656327 C 148.803864 -35.586605 147.896993 -39.185148 147.072112 -42.068915 C 146.247232 -44.952682 145.113953 -48.486463 144.107833 -51.312107 C 143.101714 -54.137751 141.74659 -57.59254 140.563283 -60.348683 C 139.379975 -63.104825 137.808464 -66.466712 136.452733 -69.142256 C 135.097003 -71.817799 133.315431 -75.073246 131.792737 -77.657417 C 130.270043 -80.241588 128.285585 -83.377486 126.602058 -85.85988 C 124.918531 -88.342273 122.739177 -91.345995 120.901597 -93.716615 C 119.064016 -96.087234 116.698543 -98.946686 114.714308 -101.195986 C 112.730073 -103.445286 110.188004 -106.148953 108.065105 -108.267877 C 105.942205 -110.3868 103.233778 -112.923796 100.980762 -114.903811 L 0 0 L 49.019237 144.90381 Z " fill="rgb(210,210,210)" stroke="rgb(210,210,210)" stroke-width="1" stroke-opacity="1" fill-opacity="1" visibility="visible" stroke-linecap="butt" stroke-linejoin="miter" stroke-miterlimit="4"></path><path transform="matrix(1 0 0 1 150 150)" id="two-2" d="M 49.339686 145.851076 C 49.339686 145.851076 56.616341 143.637078 66.889106 138.682329 C 72.025489 136.204955 78.631544 132.501098 83.424555 129.4113 C 88.217566 126.321502 94.31839 121.833911 98.695373 118.178527 C 103.072355 114.523143 108.575466 109.319847 112.47007 105.154289 C 116.364673 100.98873 121.186649 95.148604 124.539835 90.536018 C 127.893021 85.923431 131.960765 79.535006 134.721703 74.545314 C 137.48264 69.555621 140.734491 62.715739 142.861327 57.424578 C 144.988163 52.133418 147.374825 44.945764 148.835319 39.433345 C 150.295814 33.920926 151.781107 26.494458 152.55312 20.844342 C 153.325133 15.194227 153.886542 7.641522 153.958371 1.93936 C 154.030199 -3.762801 153.659215 -11.327251 153.029769 -16.99502 C 152.400324 -22.662789 151.10257 -30.124314 149.781393 -35.671773 C 148.460216 -41.219232 146.255364 -48.464724 144.262483 -53.807779 C 142.269602 -59.150834 139.191076 -66.070458 136.556701 -71.128113 C 133.922327 -76.185769 130.016793 -82.674631 126.780859 -87.370218 C 123.544925 -92.065805 118.871588 -98.025541 115.083148 -102.287879 C 111.294708 -106.550218 105.924411 -111.890483 101.640894 -115.654961 L 100.32063 -114.152661 C 100.32063 -114.152661 106.512748 -109.051191 114.362285 -100.0816 C 118.287054 -95.596804 123.141361 -89.256827 126.44717 -84.298114 C 129.752978 -79.339401 133.738224 -72.420049 136.368509 -67.072264 C 138.998793 -61.72448 142.046788 -54.344144 143.956544 -48.69879 C 145.866301 -43.053435 147.924892 -35.338396 149.081444 -29.492065 C 150.237995 -23.645734 151.27196 -15.727998 151.655518 -9.780723 C 152.039076 -3.833448 152.030723 4.15151 151.634725 10.09797 C 151.238726 16.044429 150.188199 23.959985 149.019419 29.803883 C 147.850639 35.647782 145.775912 43.358497 143.85435 48.999844 C 141.932787 54.641191 138.869359 62.015134 136.227892 67.357404 C 133.586426 72.699675 129.586713 79.610675 126.270538 84.562461 C 122.954363 89.514247 118.086803 95.844055 114.15266 100.32063 C 110.218518 104.797205 104.566394 110.437516 100.081599 114.362285 C 95.596803 118.287054 89.256826 123.141361 84.298113 126.44717 C 79.3394 129.752978 72.420048 133.738224 67.072263 136.368509 C 61.724479 138.998793 54.344143 142.046788 48.698789 143.956544 L 49.339686 145.851076 Z " fill="rgb(180,180,180)" stroke="none" stroke-width="1" stroke-opacity="1" fill-opacity="1" visibility="visible" stroke-linecap="butt" stroke-linejoin="miter" stroke-miterlimit="4"></path><path transform="matrix(1 0 0 1 300 180)" id="two-3" d="M -49.339687 -145.851077 C -49.339687 -145.851077 -52.905381 -144.721872 -58.490797 -142.428115 C -61.283506 -141.281237 -64.69204 -139.75334 -67.406386 -138.431646 C -70.120732 -137.109952 -73.425498 -135.368948 -76.050552 -133.877761 C -78.675607 -132.386574 -81.863298 -130.439474 -84.38849 -128.784798 C -86.913683 -127.130121 -89.971464 -124.984766 -92.386626 -123.173263 C -94.801788 -121.361761 -97.717346 -119.026788 -100.012753 -117.065754 C -102.30816 -115.104719 -105.069755 -112.589532 -107.236164 -110.486862 C -109.402573 -108.384192 -111.999084 -105.698917 -114.027772 -103.463078 C -116.05646 -101.227239 -118.477434 -98.38269 -120.360231 -96.022685 C -122.243029 -93.662681 -124.478716 -90.67031 -126.208042 -88.195643 C -127.937369 -85.720975 -129.978767 -82.592834 -131.547658 -80.013468 C -133.11655 -77.434102 -134.955438 -74.182785 -136.357578 -71.509107 C -137.759717 -68.835429 -139.388692 -65.474028 -140.618434 -62.716804 C -141.848175 -59.95958 -143.260677 -56.50163 -144.313069 -53.671962 C -145.36546 -50.842294 -146.555802 -47.301721 -147.426606 -44.411003 C -148.29741 -41.520285 -149.260798 -37.911344 -149.946508 -34.971216 C -150.632219 -32.031088 -151.364774 -28.368311 -151.862629 -25.390612 C -152.360484 -22.412914 -152.859257 -18.711049 -153.167253 -15.70777 C -153.475248 -12.70449 -153.73823 -8.978445 -153.855126 -5.961677 C -153.972021 -2.94491 -153.998153 0.790313 -153.923479 3.808421 C -153.848804 6.826528 -153.637981 10.555888 -153.372036 13.563183 C -153.106091 16.570478 -152.659162 20.278959 -152.203018 23.263332 C -151.746874 26.247705 -151.065638 29.920373 -150.421132 32.869807 C -149.776626 35.819241 -148.863827 39.441309 -148.033554 42.343927 C -147.203281 45.246546 -146.062594 48.803428 -145.049897 51.647544 C -144.0372 54.491659 -142.673218 57.969033 -141.482175 60.743193 C -140.291132 63.517354 -138.709347 66.901217 -137.344754 69.594252 C -135.980161 72.287286 -134.186943 75.564014 -132.654294 78.165079 C -131.121645 80.766143 -129.124215 83.922541 -127.429682 86.421162 C -125.73515 88.919783 -123.54155 91.943142 -121.691956 94.329258 C -119.842363 96.715375 -117.461426 99.59352 -115.46422 101.857524 C -113.467013 104.121528 -110.908327 106.84287 -108.771549 108.975645 C -106.634772 111.10842 -103.908639 113.662001 -101.640895 115.65496 L 0 0 L -49.339687 -145.851077 Z " fill="rgb(210,210,210)" stroke="rgb(210,210,210)" stroke-width="1" stroke-opacity="1" fill-opacity="1" visibility="visible" stroke-linecap="butt" stroke-linejoin="miter" stroke-miterlimit="4"></path><path transform="matrix(1 0 0 1 300 180)" id="two-4" d="M -49.339687 -145.851077 C -49.339687 -145.851077 -56.616342 -143.637079 -66.889107 -138.68233 C -72.02549 -136.204956 -78.631545 -132.501099 -83.424556 -129.411301 C -88.217567 -126.321503 -94.318391 -121.833912 -98.695374 -118.178528 C -103.072356 -114.523144 -108.575467 -109.319848 -112.470071 -105.15429 C -116.364674 -100.988731 -121.18665 -95.148605 -124.539836 -90.536019 C -127.893022 -85.923432 -131.960766 -79.535007 -134.721704 -74.545315 C -137.482641 -69.555622 -140.734492 -62.71574 -142.861328 -57.424579 C -144.988164 -52.133419 -147.374826 -44.945765 -148.83532 -39.433346 C -150.295815 -33.920927 -151.781108 -26.494459 -152.553121 -20.844343 C -153.325134 -15.194228 -153.886543 -7.641523 -153.958372 -1.939361 C -154.0302 3.7628 -153.659216 11.32725 -153.02977 16.995019 C -152.400325 22.662788 -151.102571 30.124313 -149.781394 35.671772 C -148.460217 41.219231 -146.255365 48.464723 -144.262484 53.807778 C -142.269603 59.150833 -139.191077 66.070457 -136.556702 71.128112 C -133.922328 76.185768 -130.016794 82.67463 -126.78086 87.370217 C -123.544926 92.065804 -118.871589 98.02554 -115.083149 102.287878 C -111.294709 106.550217 -105.924412 111.890482 -101.640895 115.65496 L -100.320631 114.15266 C -100.320631 114.15266 -106.512749 109.05119 -114.362286 100.081599 C -118.287055 95.596803 -123.141362 89.256826 -126.447171 84.298113 C -129.752979 79.3394 -133.738225 72.420048 -136.36851 67.072263 C -138.998794 61.724479 -142.046789 54.344143 -143.956545 48.698789 C -145.866302 43.053434 -147.924893 35.338395 -149.081445 29.492064 C -150.237996 23.645733 -151.271961 15.727997 -151.655519 9.780722 C -152.039077 3.833447 -152.030724 -4.151511 -151.634726 -10.097971 C -151.238727 -16.04443 -150.1882 -23.959986 -149.01942 -29.803884 C -147.85064 -35.647783 -145.775913 -43.358498 -143.854351 -48.999845 C -141.932788 -54.641192 -138.86936 -62.015135 -136.227893 -67.357405 C -133.586427 -72.699676 -129.586714 -79.610676 -126.270539 -84.562462 C -122.954364 -89.514248 -118.086804 -95.844056 -114.152661 -100.320631 C -110.218519 -104.797206 -104.566395 -110.437517 -100.0816 -114.362286 C -95.596804 -118.287055 -89.256827 -123.141362 -84.298114 -126.447171 C -79.339401 -129.752979 -72.420049 -133.738225 -67.072264 -136.36851 C -61.72448 -138.998794 -54.344144 -142.046789 -48.69879 -143.956545 L -49.339687 -145.851077 Z " fill="rgb(180,180,180)" stroke="none" stroke-width="1" stroke-opacity="1" fill-opacity="1" visibility="visible" stroke-linecap="butt" stroke-linejoin="miter" stroke-miterlimit="4"></path><path transform="matrix(1 0 0 1 0 0)" id="two-5" d="M 150 150 L 300 180 " fill="#fff" stroke="#000" stroke-width="1" stroke-opacity="1" fill-opacity="1" visibility="visible" stroke-linecap="butt" stroke-linejoin="miter" stroke-miterlimit="4" stroke-dasharray="0 4 0" stroke-dashoffset="0"></path><text transform="matrix(1 0 0 1 140 145)" id="two-6" font-family="Libertine, Linux Libertine 0" font-size="18" line-height="17" text-anchor="middle" dominant-baseline="middle" font-style="normal" font-weight="500" text-decoration="none" direction="ltr" fill="#000" stroke="none" stroke-width="1" opacity="1" visibility="visible">p</text><path transform="matrix(1 0 0 1 150 150)" id="two-7" d="M 2 0 C 2 1.104569 1.104569 2 0 2 C -1.10457 2 -2 1.104569 -2 0 C -2 -1.10457 -1.10457 -2 -0.000001 -2 C 1.104569 -2.000001 2 -1.10457 2 0 Z " fill="none" stroke="rgb(32,32,32)" stroke-width="1" stroke-opacity="1" fill-opacity="1" visibility="visible" stroke-linecap="butt" stroke-linejoin="miter" stroke-miterlimit="4"></path><text transform="matrix(1 0 0 1 310 185)" id="two-8" font-family="Libertine, Linux Libertine 0" font-size="18" line-height="17" text-anchor="middle" dominant-baseline="middle" font-style="normal" font-weight="500" text-decoration="none" direction="ltr" fill="#000" stroke="none" stroke-width="1" opacity="1" visibility="visible">q</text><path transform="matrix(1 0 0 1 300 180)" id="two-9" d="M 2 0 C 2 1.104569 1.104569 2 0 2 C -1.10457 2 -2 1.104569 -2 0 C -2 -1.10457 -1.10457 -2 -0.000001 -2 C 1.104569 -2.000001 2 -1.10457 2 0 Z " fill="none" stroke="rgb(32,32,32)" stroke-width="1" stroke-opacity="1" fill-opacity="1" visibility="visible" stroke-linecap="butt" stroke-linejoin="miter" stroke-miterlimit="4"></path><text transform="matrix(1 0 0 1 360 135)" id="two-10" font-family="Libertine, Linux Libertine 0" font-size="18" line-height="17" text-anchor="middle" dominant-baseline="middle" font-style="normal" font-weight="500" text-decoration="none" direction="ltr" fill="#000" stroke="none" stroke-width="1" opacity="1" visibility="visible">v</text><path transform="matrix(1 0 0 1 350 130)" id="two-11" d="M 2 0 C 2 1.104569 1.104569 2 0 2 C -1.10457 2 -2 1.104569 -2 0 C -2 -1.10457 -1.10457 -2 -0.000001 -2 C 1.104569 -2.000001 2 -1.10457 2 0 Z " fill="none" stroke="rgb(32,32,32)" stroke-width="1" stroke-opacity="1" fill-opacity="1" visibility="visible" stroke-linecap="butt" stroke-linejoin="miter" stroke-miterlimit="4"></path><text transform="matrix(1 0 0 1 245 65)" id="two-12" font-family="Libertine, Linux Libertine 0" font-size="23" line-height="17" text-anchor="middle" dominant-baseline="middle" font-style="normal" font-weight="500" text-decoration="none" direction="ltr" fill="#000" stroke="none" stroke-width="1" opacity="1" visibility="visible">R</text></g></svg>