<?xml version="1.0" encoding="UTF-8" standalone="no"?>
<!-- Created with Inkscape (http://www.inkscape.org/) -->

<svg
   width="210mm"
   height="210mm"
   viewBox="0 0 210 210"
   version="1.1"
   id="svg5"
   inkscape:version="1.1.2 (0a00cf5339, 2022-02-04)"
   sodipodi:docname="rng_knt_lemma2.svg"
   xmlns:inkscape="http://www.inkscape.org/namespaces/inkscape"
   xmlns:sodipodi="http://sodipodi.sourceforge.net/DTD/sodipodi-0.dtd"
   xmlns:xlink="http://www.w3.org/1999/xlink"
   xmlns="http://www.w3.org/2000/svg"
   xmlns:svg="http://www.w3.org/2000/svg">
  <sodipodi:namedview
     id="namedview7"
     pagecolor="#ffffff"
     bordercolor="#666666"
     borderopacity="1.0"
     inkscape:pageshadow="2"
     inkscape:pageopacity="0.0"
     inkscape:pagecheckerboard="0"
     inkscape:document-units="mm"
     showgrid="false"
     height="210mm"
     inkscape:zoom="1"
     inkscape:cx="386.5"
     inkscape:cy="411"
     inkscape:window-width="1772"
     inkscape:window-height="1057"
     inkscape:window-x="31"
     inkscape:window-y="11"
     inkscape:window-maximized="0"
     inkscape:current-layer="layer1" />
  <defs
     id="defs2">
    <g
       id="g8386">
      <symbol
         overflow="visible"
         id="symbol4880">
        <path
           style="stroke:none;"
           d=""
           id="path9663" />
      </symbol>
      <symbol
         overflow="visible"
         id="symbol7087">
        <path
           style="stroke:none;"
           d="M 3.734375 -6.125 C 3.796875 -6.359375 3.828125 -6.453125 4.015625 -6.484375 C 4.109375 -6.5 4.421875 -6.5 4.625 -6.5 C 5.328125 -6.5 6.4375 -6.5 6.4375 -5.515625 C 6.4375 -5.171875 6.28125 -4.484375 5.890625 -4.09375 C 5.625 -3.84375 5.109375 -3.515625 4.203125 -3.515625 L 3.09375 -3.515625 Z M 5.171875 -3.390625 C 6.1875 -3.609375 7.359375 -4.3125 7.359375 -5.3125 C 7.359375 -6.171875 6.46875 -6.8125 5.15625 -6.8125 L 2.328125 -6.8125 C 2.125 -6.8125 2.03125 -6.8125 2.03125 -6.609375 C 2.03125 -6.5 2.125 -6.5 2.3125 -6.5 C 2.328125 -6.5 2.515625 -6.5 2.6875 -6.484375 C 2.875 -6.453125 2.953125 -6.453125 2.953125 -6.3125 C 2.953125 -6.28125 2.953125 -6.25 2.921875 -6.125 L 1.578125 -0.78125 C 1.484375 -0.390625 1.46875 -0.3125 0.671875 -0.3125 C 0.5 -0.3125 0.40625 -0.3125 0.40625 -0.109375 C 0.40625 0 0.53125 0 0.546875 0 C 0.828125 0 1.53125 -0.03125 1.796875 -0.03125 C 2.078125 -0.03125 2.796875 0 3.078125 0 C 3.15625 0 3.265625 0 3.265625 -0.203125 C 3.265625 -0.3125 3.1875 -0.3125 2.984375 -0.3125 C 2.625 -0.3125 2.34375 -0.3125 2.34375 -0.484375 C 2.34375 -0.546875 2.359375 -0.59375 2.375 -0.65625 L 3.03125 -3.296875 L 4.21875 -3.296875 C 5.125 -3.296875 5.296875 -2.734375 5.296875 -2.390625 C 5.296875 -2.25 5.21875 -1.9375 5.15625 -1.703125 C 5.09375 -1.421875 5 -1.0625 5 -0.859375 C 5 0.21875 6.203125 0.21875 6.328125 0.21875 C 7.171875 0.21875 7.53125 -0.78125 7.53125 -0.921875 C 7.53125 -1.046875 7.421875 -1.046875 7.40625 -1.046875 C 7.3125 -1.046875 7.296875 -0.984375 7.28125 -0.90625 C 7.03125 -0.171875 6.59375 0 6.375 0 C 6.046875 0 5.96875 -0.21875 5.96875 -0.609375 C 5.96875 -0.921875 6.03125 -1.421875 6.078125 -1.75 C 6.09375 -1.890625 6.109375 -2.078125 6.109375 -2.21875 C 6.109375 -2.984375 5.4375 -3.296875 5.171875 -3.390625 Z M 5.171875 -3.390625 "
           id="path7242" />
      </symbol>
      <symbol
         overflow="visible"
         id="symbol6563">
        <path
           style="stroke:none;"
           d=""
           id="path412" />
      </symbol>
      <symbol
         overflow="visible"
         id="symbol2847">
        <path
           style="stroke:none;"
           d="M 2.328125 -4.4375 C 2.328125 -4.625 2.328125 -4.625 2.125 -4.625 C 1.671875 -4.1875 1.046875 -4.1875 0.765625 -4.1875 L 0.765625 -3.9375 C 0.921875 -3.9375 1.390625 -3.9375 1.765625 -4.125 L 1.765625 -0.578125 C 1.765625 -0.34375 1.765625 -0.25 1.078125 -0.25 L 0.8125 -0.25 L 0.8125 0 C 0.9375 0 1.796875 -0.03125 2.046875 -0.03125 C 2.265625 -0.03125 3.140625 0 3.296875 0 L 3.296875 -0.25 L 3.03125 -0.25 C 2.328125 -0.25 2.328125 -0.34375 2.328125 -0.578125 Z M 2.328125 -4.4375 "
           id="path2124" />
      </symbol>
    </g>
    <g
       id="g9594">
      <symbol
         overflow="visible"
         id="symbol3219">
        <path
           style="stroke:none;"
           d=""
           id="path5283" />
      </symbol>
      <symbol
         overflow="visible"
         id="symbol2445">
        <path
           style="stroke:none;"
           d="M 3.734375 -6.125 C 3.796875 -6.359375 3.828125 -6.453125 4.015625 -6.484375 C 4.109375 -6.5 4.421875 -6.5 4.625 -6.5 C 5.328125 -6.5 6.4375 -6.5 6.4375 -5.515625 C 6.4375 -5.171875 6.28125 -4.484375 5.890625 -4.09375 C 5.625 -3.84375 5.109375 -3.515625 4.203125 -3.515625 L 3.09375 -3.515625 Z M 5.171875 -3.390625 C 6.1875 -3.609375 7.359375 -4.3125 7.359375 -5.3125 C 7.359375 -6.171875 6.46875 -6.8125 5.15625 -6.8125 L 2.328125 -6.8125 C 2.125 -6.8125 2.03125 -6.8125 2.03125 -6.609375 C 2.03125 -6.5 2.125 -6.5 2.3125 -6.5 C 2.328125 -6.5 2.515625 -6.5 2.6875 -6.484375 C 2.875 -6.453125 2.953125 -6.453125 2.953125 -6.3125 C 2.953125 -6.28125 2.953125 -6.25 2.921875 -6.125 L 1.578125 -0.78125 C 1.484375 -0.390625 1.46875 -0.3125 0.671875 -0.3125 C 0.5 -0.3125 0.40625 -0.3125 0.40625 -0.109375 C 0.40625 0 0.53125 0 0.546875 0 C 0.828125 0 1.53125 -0.03125 1.796875 -0.03125 C 2.078125 -0.03125 2.796875 0 3.078125 0 C 3.15625 0 3.265625 0 3.265625 -0.203125 C 3.265625 -0.3125 3.1875 -0.3125 2.984375 -0.3125 C 2.625 -0.3125 2.34375 -0.3125 2.34375 -0.484375 C 2.34375 -0.546875 2.359375 -0.59375 2.375 -0.65625 L 3.03125 -3.296875 L 4.21875 -3.296875 C 5.125 -3.296875 5.296875 -2.734375 5.296875 -2.390625 C 5.296875 -2.25 5.21875 -1.9375 5.15625 -1.703125 C 5.09375 -1.421875 5 -1.0625 5 -0.859375 C 5 0.21875 6.203125 0.21875 6.328125 0.21875 C 7.171875 0.21875 7.53125 -0.78125 7.53125 -0.921875 C 7.53125 -1.046875 7.421875 -1.046875 7.40625 -1.046875 C 7.3125 -1.046875 7.296875 -0.984375 7.28125 -0.90625 C 7.03125 -0.171875 6.59375 0 6.375 0 C 6.046875 0 5.96875 -0.21875 5.96875 -0.609375 C 5.96875 -0.921875 6.03125 -1.421875 6.078125 -1.75 C 6.09375 -1.890625 6.109375 -2.078125 6.109375 -2.21875 C 6.109375 -2.984375 5.4375 -3.296875 5.171875 -3.390625 Z M 5.171875 -3.390625 "
           id="path6373" />
      </symbol>
      <symbol
         overflow="visible"
         id="symbol65">
        <path
           style="stroke:none;"
           d=""
           id="path8037" />
      </symbol>
      <symbol
         overflow="visible"
         id="symbol5470">
        <path
           style="stroke:none;"
           d="M 3.515625 -1.265625 L 3.28125 -1.265625 C 3.265625 -1.109375 3.1875 -0.703125 3.09375 -0.640625 C 3.046875 -0.59375 2.515625 -0.59375 2.40625 -0.59375 L 1.125 -0.59375 C 1.859375 -1.234375 2.109375 -1.4375 2.515625 -1.765625 C 3.03125 -2.171875 3.515625 -2.609375 3.515625 -3.265625 C 3.515625 -4.109375 2.78125 -4.625 1.890625 -4.625 C 1.03125 -4.625 0.4375 -4.015625 0.4375 -3.375 C 0.4375 -3.03125 0.734375 -2.984375 0.8125 -2.984375 C 0.96875 -2.984375 1.171875 -3.109375 1.171875 -3.359375 C 1.171875 -3.484375 1.125 -3.734375 0.765625 -3.734375 C 0.984375 -4.21875 1.453125 -4.375 1.78125 -4.375 C 2.484375 -4.375 2.84375 -3.828125 2.84375 -3.265625 C 2.84375 -2.65625 2.40625 -2.1875 2.1875 -1.9375 L 0.515625 -0.265625 C 0.4375 -0.203125 0.4375 -0.1875 0.4375 0 L 3.3125 0 Z M 3.515625 -1.265625 "
           id="path5267" />
      </symbol>
    </g>
    <g
       id="g4015">
      <symbol
         overflow="visible"
         id="symbol5614">
        <path
           style="stroke:none;"
           d=""
           id="path2361" />
      </symbol>
      <symbol
         overflow="visible"
         id="symbol3753">
        <path
           style="stroke:none;"
           d="M 3.734375 -6.125 C 3.796875 -6.359375 3.828125 -6.453125 4.015625 -6.484375 C 4.109375 -6.5 4.421875 -6.5 4.625 -6.5 C 5.328125 -6.5 6.4375 -6.5 6.4375 -5.515625 C 6.4375 -5.171875 6.28125 -4.484375 5.890625 -4.09375 C 5.625 -3.84375 5.109375 -3.515625 4.203125 -3.515625 L 3.09375 -3.515625 Z M 5.171875 -3.390625 C 6.1875 -3.609375 7.359375 -4.3125 7.359375 -5.3125 C 7.359375 -6.171875 6.46875 -6.8125 5.15625 -6.8125 L 2.328125 -6.8125 C 2.125 -6.8125 2.03125 -6.8125 2.03125 -6.609375 C 2.03125 -6.5 2.125 -6.5 2.3125 -6.5 C 2.328125 -6.5 2.515625 -6.5 2.6875 -6.484375 C 2.875 -6.453125 2.953125 -6.453125 2.953125 -6.3125 C 2.953125 -6.28125 2.953125 -6.25 2.921875 -6.125 L 1.578125 -0.78125 C 1.484375 -0.390625 1.46875 -0.3125 0.671875 -0.3125 C 0.5 -0.3125 0.40625 -0.3125 0.40625 -0.109375 C 0.40625 0 0.53125 0 0.546875 0 C 0.828125 0 1.53125 -0.03125 1.796875 -0.03125 C 2.078125 -0.03125 2.796875 0 3.078125 0 C 3.15625 0 3.265625 0 3.265625 -0.203125 C 3.265625 -0.3125 3.1875 -0.3125 2.984375 -0.3125 C 2.625 -0.3125 2.34375 -0.3125 2.34375 -0.484375 C 2.34375 -0.546875 2.359375 -0.59375 2.375 -0.65625 L 3.03125 -3.296875 L 4.21875 -3.296875 C 5.125 -3.296875 5.296875 -2.734375 5.296875 -2.390625 C 5.296875 -2.25 5.21875 -1.9375 5.15625 -1.703125 C 5.09375 -1.421875 5 -1.0625 5 -0.859375 C 5 0.21875 6.203125 0.21875 6.328125 0.21875 C 7.171875 0.21875 7.53125 -0.78125 7.53125 -0.921875 C 7.53125 -1.046875 7.421875 -1.046875 7.40625 -1.046875 C 7.3125 -1.046875 7.296875 -0.984375 7.28125 -0.90625 C 7.03125 -0.171875 6.59375 0 6.375 0 C 6.046875 0 5.96875 -0.21875 5.96875 -0.609375 C 5.96875 -0.921875 6.03125 -1.421875 6.078125 -1.75 C 6.09375 -1.890625 6.109375 -2.078125 6.109375 -2.21875 C 6.109375 -2.984375 5.4375 -3.296875 5.171875 -3.390625 Z M 5.171875 -3.390625 "
           id="path7685" />
      </symbol>
      <symbol
         overflow="visible"
         id="symbol393">
        <path
           style="stroke:none;"
           d=""
           id="path9246" />
      </symbol>
      <symbol
         overflow="visible"
         id="symbol2765">
        <path
           style="stroke:none;"
           d="M 2.90625 -2.078125 C 2.90625 -0.34375 2.0625 -0.078125 1.640625 -0.078125 C 1.484375 -0.078125 1.109375 -0.09375 0.921875 -0.3125 C 1.21875 -0.34375 1.234375 -0.578125 1.234375 -0.640625 C 1.234375 -0.8125 1.109375 -0.96875 0.90625 -0.96875 C 0.703125 -0.96875 0.578125 -0.828125 0.578125 -0.625 C 0.578125 -0.15625 0.96875 0.140625 1.640625 0.140625 C 2.640625 0.140625 3.578125 -0.796875 3.578125 -2.296875 C 3.578125 -4.015625 2.8125 -4.625 2 -4.625 C 1.765625 -4.625 1.296875 -4.59375 0.890625 -4.203125 C 0.65625 -3.96875 0.375 -3.703125 0.375 -3.078125 C 0.375 -2.1875 1.078125 -1.53125 1.890625 -1.53125 C 2.453125 -1.53125 2.75 -1.90625 2.90625 -2.21875 Z M 1.9375 -1.734375 C 1.65625 -1.734375 1.40625 -1.8125 1.203125 -2.140625 C 1.046875 -2.390625 1.046875 -2.6875 1.046875 -3.078125 C 1.046875 -3.484375 1.046875 -3.75 1.25 -4.03125 C 1.421875 -4.28125 1.640625 -4.421875 2 -4.421875 C 2.359375 -4.421875 2.578125 -4.203125 2.6875 -4.015625 C 2.875 -3.734375 2.890625 -3.234375 2.890625 -3 C 2.890625 -2.09375 2.375 -1.734375 1.9375 -1.734375 Z M 1.9375 -1.734375 "
           id="path6261" />
      </symbol>
    </g>
    <g
       id="g418">
      <symbol
         overflow="visible"
         id="symbol9976">
        <path
           style="stroke:none;"
           d=""
           id="path8580" />
      </symbol>
      <symbol
         overflow="visible"
         id="symbol8127">
        <path
           style="stroke:none;"
           d="M 3.734375 -6.125 C 3.796875 -6.359375 3.828125 -6.453125 4.015625 -6.484375 C 4.109375 -6.5 4.421875 -6.5 4.625 -6.5 C 5.328125 -6.5 6.4375 -6.5 6.4375 -5.515625 C 6.4375 -5.171875 6.28125 -4.484375 5.890625 -4.09375 C 5.625 -3.84375 5.109375 -3.515625 4.203125 -3.515625 L 3.09375 -3.515625 Z M 5.171875 -3.390625 C 6.1875 -3.609375 7.359375 -4.3125 7.359375 -5.3125 C 7.359375 -6.171875 6.46875 -6.8125 5.15625 -6.8125 L 2.328125 -6.8125 C 2.125 -6.8125 2.03125 -6.8125 2.03125 -6.609375 C 2.03125 -6.5 2.125 -6.5 2.3125 -6.5 C 2.328125 -6.5 2.515625 -6.5 2.6875 -6.484375 C 2.875 -6.453125 2.953125 -6.453125 2.953125 -6.3125 C 2.953125 -6.28125 2.953125 -6.25 2.921875 -6.125 L 1.578125 -0.78125 C 1.484375 -0.390625 1.46875 -0.3125 0.671875 -0.3125 C 0.5 -0.3125 0.40625 -0.3125 0.40625 -0.109375 C 0.40625 0 0.53125 0 0.546875 0 C 0.828125 0 1.53125 -0.03125 1.796875 -0.03125 C 2.078125 -0.03125 2.796875 0 3.078125 0 C 3.15625 0 3.265625 0 3.265625 -0.203125 C 3.265625 -0.3125 3.1875 -0.3125 2.984375 -0.3125 C 2.625 -0.3125 2.34375 -0.3125 2.34375 -0.484375 C 2.34375 -0.546875 2.359375 -0.59375 2.375 -0.65625 L 3.03125 -3.296875 L 4.21875 -3.296875 C 5.125 -3.296875 5.296875 -2.734375 5.296875 -2.390625 C 5.296875 -2.25 5.21875 -1.9375 5.15625 -1.703125 C 5.09375 -1.421875 5 -1.0625 5 -0.859375 C 5 0.21875 6.203125 0.21875 6.328125 0.21875 C 7.171875 0.21875 7.53125 -0.78125 7.53125 -0.921875 C 7.53125 -1.046875 7.421875 -1.046875 7.40625 -1.046875 C 7.3125 -1.046875 7.296875 -0.984375 7.28125 -0.90625 C 7.03125 -0.171875 6.59375 0 6.375 0 C 6.046875 0 5.96875 -0.21875 5.96875 -0.609375 C 5.96875 -0.921875 6.03125 -1.421875 6.078125 -1.75 C 6.09375 -1.890625 6.109375 -2.078125 6.109375 -2.21875 C 6.109375 -2.984375 5.4375 -3.296875 5.171875 -3.390625 Z M 5.171875 -3.390625 "
           id="path3752" />
      </symbol>
      <symbol
         overflow="visible"
         id="symbol2976">
        <path
           style="stroke:none;"
           d=""
           id="path3621" />
      </symbol>
      <symbol
         overflow="visible"
         id="symbol2472">
        <path
           style="stroke:none;"
           d="M 2.46875 -2.515625 C 3.015625 -2.78125 3.359375 -3.109375 3.359375 -3.59375 C 3.359375 -4.265625 2.65625 -4.625 1.984375 -4.625 C 1.21875 -4.625 0.59375 -4.125 0.59375 -3.46875 C 0.59375 -3.140625 0.75 -2.90625 0.875 -2.765625 C 1 -2.609375 1.046875 -2.578125 1.453125 -2.34375 C 1.0625 -2.171875 0.375 -1.796875 0.375 -1.0625 C 0.375 -0.296875 1.171875 0.140625 1.96875 0.140625 C 2.859375 0.140625 3.578125 -0.421875 3.578125 -1.171875 C 3.578125 -1.640625 3.3125 -2.03125 2.90625 -2.265625 C 2.8125 -2.328125 2.578125 -2.453125 2.46875 -2.515625 Z M 1.34375 -3.171875 C 1.15625 -3.28125 0.96875 -3.46875 0.96875 -3.734375 C 0.96875 -4.171875 1.46875 -4.421875 1.96875 -4.421875 C 2.515625 -4.421875 3 -4.078125 3 -3.59375 C 3 -2.96875 2.265625 -2.65625 2.265625 -2.65625 C 2.25 -2.65625 2.234375 -2.65625 2.1875 -2.6875 Z M 1.671875 -2.203125 L 2.640625 -1.65625 C 2.8125 -1.546875 3.15625 -1.34375 3.15625 -0.9375 C 3.15625 -0.40625 2.578125 -0.078125 1.984375 -0.078125 C 1.34375 -0.078125 0.796875 -0.5 0.796875 -1.0625 C 0.796875 -1.578125 1.171875 -1.984375 1.671875 -2.203125 Z M 1.671875 -2.203125 "
           id="path7941" />
      </symbol>
    </g>
    <g
       id="g9006">
      <symbol
         overflow="visible"
         id="symbol2615">
        <path
           style="stroke:none;"
           d=""
           id="path6354" />
      </symbol>
      <symbol
         overflow="visible"
         id="symbol8813">
        <path
           style="stroke:none;"
           d="M 4.5 -4.296875 C 4.5 -4.34375 4.46875 -4.390625 4.40625 -4.390625 C 4.296875 -4.390625 3.890625 -4 3.734375 -3.703125 C 3.515625 -4.25 3.125 -4.40625 2.796875 -4.40625 C 1.625 -4.40625 0.40625 -2.9375 0.40625 -1.484375 C 0.40625 -0.515625 0.984375 0.109375 1.71875 0.109375 C 2.140625 0.109375 2.53125 -0.125 2.890625 -0.484375 C 2.796875 -0.140625 2.46875 1.203125 2.4375 1.296875 C 2.359375 1.578125 2.28125 1.609375 1.71875 1.625 C 1.59375 1.625 1.5 1.625 1.5 1.828125 C 1.5 1.828125 1.5 1.9375 1.625 1.9375 C 1.9375 1.9375 2.296875 1.90625 2.625 1.90625 C 2.953125 1.90625 3.3125 1.9375 3.65625 1.9375 C 3.703125 1.9375 3.828125 1.9375 3.828125 1.734375 C 3.828125 1.625 3.734375 1.625 3.5625 1.625 C 3.09375 1.625 3.09375 1.5625 3.09375 1.46875 C 3.09375 1.390625 3.109375 1.328125 3.125 1.25 Z M 1.75 -0.109375 C 1.140625 -0.109375 1.109375 -0.875 1.109375 -1.046875 C 1.109375 -1.53125 1.390625 -2.609375 1.5625 -3.03125 C 1.875 -3.765625 2.390625 -4.1875 2.796875 -4.1875 C 3.453125 -4.1875 3.59375 -3.375 3.59375 -3.3125 C 3.59375 -3.25 3.046875 -1.0625 3.015625 -1.03125 C 2.859375 -0.75 2.296875 -0.109375 1.75 -0.109375 Z M 1.75 -0.109375 "
           id="path1546" />
      </symbol>
      <symbol
         overflow="visible"
         id="symbol9997">
        <path
           style="stroke:none;"
           d=""
           id="path4229" />
      </symbol>
      <symbol
         overflow="visible"
         id="symbol6805">
        <path
           style="stroke:none;"
           d="M 3.515625 -1.265625 L 3.28125 -1.265625 C 3.265625 -1.109375 3.1875 -0.703125 3.09375 -0.640625 C 3.046875 -0.59375 2.515625 -0.59375 2.40625 -0.59375 L 1.125 -0.59375 C 1.859375 -1.234375 2.109375 -1.4375 2.515625 -1.765625 C 3.03125 -2.171875 3.515625 -2.609375 3.515625 -3.265625 C 3.515625 -4.109375 2.78125 -4.625 1.890625 -4.625 C 1.03125 -4.625 0.4375 -4.015625 0.4375 -3.375 C 0.4375 -3.03125 0.734375 -2.984375 0.8125 -2.984375 C 0.96875 -2.984375 1.171875 -3.109375 1.171875 -3.359375 C 1.171875 -3.484375 1.125 -3.734375 0.765625 -3.734375 C 0.984375 -4.21875 1.453125 -4.375 1.78125 -4.375 C 2.484375 -4.375 2.84375 -3.828125 2.84375 -3.265625 C 2.84375 -2.65625 2.40625 -2.1875 2.1875 -1.9375 L 0.515625 -0.265625 C 0.4375 -0.203125 0.4375 -0.1875 0.4375 0 L 3.3125 0 Z M 3.515625 -1.265625 "
           id="path1912" />
      </symbol>
    </g>
    <g
       id="g8695">
      <symbol
         overflow="visible"
         id="symbol8096">
        <path
           style="stroke:none;"
           d=""
           id="path9666" />
      </symbol>
      <symbol
         overflow="visible"
         id="symbol2626">
        <path
           style="stroke:none;"
           d="M 4.5 -4.296875 C 4.5 -4.34375 4.46875 -4.390625 4.40625 -4.390625 C 4.296875 -4.390625 3.890625 -4 3.734375 -3.703125 C 3.515625 -4.25 3.125 -4.40625 2.796875 -4.40625 C 1.625 -4.40625 0.40625 -2.9375 0.40625 -1.484375 C 0.40625 -0.515625 0.984375 0.109375 1.71875 0.109375 C 2.140625 0.109375 2.53125 -0.125 2.890625 -0.484375 C 2.796875 -0.140625 2.46875 1.203125 2.4375 1.296875 C 2.359375 1.578125 2.28125 1.609375 1.71875 1.625 C 1.59375 1.625 1.5 1.625 1.5 1.828125 C 1.5 1.828125 1.5 1.9375 1.625 1.9375 C 1.9375 1.9375 2.296875 1.90625 2.625 1.90625 C 2.953125 1.90625 3.3125 1.9375 3.65625 1.9375 C 3.703125 1.9375 3.828125 1.9375 3.828125 1.734375 C 3.828125 1.625 3.734375 1.625 3.5625 1.625 C 3.09375 1.625 3.09375 1.5625 3.09375 1.46875 C 3.09375 1.390625 3.109375 1.328125 3.125 1.25 Z M 1.75 -0.109375 C 1.140625 -0.109375 1.109375 -0.875 1.109375 -1.046875 C 1.109375 -1.53125 1.390625 -2.609375 1.5625 -3.03125 C 1.875 -3.765625 2.390625 -4.1875 2.796875 -4.1875 C 3.453125 -4.1875 3.59375 -3.375 3.59375 -3.3125 C 3.59375 -3.25 3.046875 -1.0625 3.015625 -1.03125 C 2.859375 -0.75 2.296875 -0.109375 1.75 -0.109375 Z M 1.75 -0.109375 "
           id="path5954" />
      </symbol>
      <symbol
         overflow="visible"
         id="symbol5298">
        <path
           style="stroke:none;"
           d=""
           id="path1936" />
      </symbol>
      <symbol
         overflow="visible"
         id="symbol313">
        <path
           style="stroke:none;"
           d="M 2.46875 -2.515625 C 3.015625 -2.78125 3.359375 -3.109375 3.359375 -3.59375 C 3.359375 -4.265625 2.65625 -4.625 1.984375 -4.625 C 1.21875 -4.625 0.59375 -4.125 0.59375 -3.46875 C 0.59375 -3.140625 0.75 -2.90625 0.875 -2.765625 C 1 -2.609375 1.046875 -2.578125 1.453125 -2.34375 C 1.0625 -2.171875 0.375 -1.796875 0.375 -1.0625 C 0.375 -0.296875 1.171875 0.140625 1.96875 0.140625 C 2.859375 0.140625 3.578125 -0.421875 3.578125 -1.171875 C 3.578125 -1.640625 3.3125 -2.03125 2.90625 -2.265625 C 2.8125 -2.328125 2.578125 -2.453125 2.46875 -2.515625 Z M 1.34375 -3.171875 C 1.15625 -3.28125 0.96875 -3.46875 0.96875 -3.734375 C 0.96875 -4.171875 1.46875 -4.421875 1.96875 -4.421875 C 2.515625 -4.421875 3 -4.078125 3 -3.59375 C 3 -2.96875 2.265625 -2.65625 2.265625 -2.65625 C 2.25 -2.65625 2.234375 -2.65625 2.1875 -2.6875 Z M 1.671875 -2.203125 L 2.640625 -1.65625 C 2.8125 -1.546875 3.15625 -1.34375 3.15625 -0.9375 C 3.15625 -0.40625 2.578125 -0.078125 1.984375 -0.078125 C 1.34375 -0.078125 0.796875 -0.5 0.796875 -1.0625 C 0.796875 -1.578125 1.171875 -1.984375 1.671875 -2.203125 Z M 1.671875 -2.203125 "
           id="path1685" />
      </symbol>
    </g>
    <g
       id="g4790">
      <symbol
         overflow="visible"
         id="symbol9907">
        <path
           style="stroke:none;"
           d=""
           id="path8195" />
      </symbol>
      <symbol
         overflow="visible"
         id="symbol1410">
        <path
           style="stroke:none;"
           d="M 4.53125 -4.984375 C 4.53125 -5.640625 4.359375 -7.03125 3.34375 -7.03125 C 1.953125 -7.03125 0.421875 -4.21875 0.421875 -1.9375 C 0.421875 -1 0.703125 0.109375 1.609375 0.109375 C 3.015625 0.109375 4.53125 -2.75 4.53125 -4.984375 Z M 1.46875 -3.625 C 1.640625 -4.25 1.84375 -5.046875 2.25 -5.765625 C 2.515625 -6.25 2.875 -6.8125 3.328125 -6.8125 C 3.8125 -6.8125 3.875 -6.171875 3.875 -5.609375 C 3.875 -5.109375 3.796875 -4.609375 3.5625 -3.625 Z M 3.46875 -3.296875 C 3.359375 -2.84375 3.15625 -2 2.765625 -1.28125 C 2.421875 -0.59375 2.046875 -0.109375 1.609375 -0.109375 C 1.28125 -0.109375 1.078125 -0.40625 1.078125 -1.328125 C 1.078125 -1.75 1.140625 -2.328125 1.390625 -3.296875 Z M 3.46875 -3.296875 "
           id="path1017" />
      </symbol>
      <symbol
         overflow="visible"
         id="symbol1252">
        <path
           style="stroke:none;"
           d="M 6.734375 -2.265625 C 6.84375 -2.328125 6.921875 -2.375 6.921875 -2.5 C 6.921875 -2.609375 6.84375 -2.65625 6.734375 -2.71875 L 1.203125 -5.3125 C 1.078125 -5.390625 1.0625 -5.390625 1.03125 -5.390625 C 0.921875 -5.390625 0.828125 -5.296875 0.828125 -5.1875 C 0.828125 -5.09375 0.875 -5.03125 1.015625 -4.96875 L 6.25 -2.5 L 1.015625 -0.015625 C 0.875 0.046875 0.828125 0.109375 0.828125 0.203125 C 0.828125 0.3125 0.921875 0.40625 1.03125 0.40625 C 1.0625 0.40625 1.078125 0.40625 1.203125 0.328125 Z M 6.734375 -2.265625 "
           id="path7111" />
      </symbol>
      <symbol
         overflow="visible"
         id="symbol9405">
        <path
           style="stroke:none;"
           d=""
           id="path2698" />
      </symbol>
      <symbol
         overflow="visible"
         id="symbol375">
        <path
           style="stroke:none;"
           d="M 2.46875 -2.515625 C 3.015625 -2.78125 3.359375 -3.109375 3.359375 -3.59375 C 3.359375 -4.265625 2.65625 -4.625 1.984375 -4.625 C 1.21875 -4.625 0.59375 -4.125 0.59375 -3.46875 C 0.59375 -3.140625 0.75 -2.90625 0.875 -2.765625 C 1 -2.609375 1.046875 -2.578125 1.453125 -2.34375 C 1.0625 -2.171875 0.375 -1.796875 0.375 -1.0625 C 0.375 -0.296875 1.171875 0.140625 1.96875 0.140625 C 2.859375 0.140625 3.578125 -0.421875 3.578125 -1.171875 C 3.578125 -1.640625 3.3125 -2.03125 2.90625 -2.265625 C 2.8125 -2.328125 2.578125 -2.453125 2.46875 -2.515625 Z M 1.34375 -3.171875 C 1.15625 -3.28125 0.96875 -3.46875 0.96875 -3.734375 C 0.96875 -4.171875 1.46875 -4.421875 1.96875 -4.421875 C 2.515625 -4.421875 3 -4.078125 3 -3.59375 C 3 -2.96875 2.265625 -2.65625 2.265625 -2.65625 C 2.25 -2.65625 2.234375 -2.65625 2.1875 -2.6875 Z M 1.671875 -2.203125 L 2.640625 -1.65625 C 2.8125 -1.546875 3.15625 -1.34375 3.15625 -0.9375 C 3.15625 -0.40625 2.578125 -0.078125 1.984375 -0.078125 C 1.34375 -0.078125 0.796875 -0.5 0.796875 -1.0625 C 0.796875 -1.578125 1.171875 -1.984375 1.671875 -2.203125 Z M 1.671875 -2.203125 "
           id="path6660" />
      </symbol>
      <symbol
         overflow="visible"
         id="symbol8828">
        <path
           style="stroke:none;"
           d="M 3.515625 -1.265625 L 3.28125 -1.265625 C 3.265625 -1.109375 3.1875 -0.703125 3.09375 -0.640625 C 3.046875 -0.59375 2.515625 -0.59375 2.40625 -0.59375 L 1.125 -0.59375 C 1.859375 -1.234375 2.109375 -1.4375 2.515625 -1.765625 C 3.03125 -2.171875 3.515625 -2.609375 3.515625 -3.265625 C 3.515625 -4.109375 2.78125 -4.625 1.890625 -4.625 C 1.03125 -4.625 0.4375 -4.015625 0.4375 -3.375 C 0.4375 -3.03125 0.734375 -2.984375 0.8125 -2.984375 C 0.96875 -2.984375 1.171875 -3.109375 1.171875 -3.359375 C 1.171875 -3.484375 1.125 -3.734375 0.765625 -3.734375 C 0.984375 -4.21875 1.453125 -4.375 1.78125 -4.375 C 2.484375 -4.375 2.84375 -3.828125 2.84375 -3.265625 C 2.84375 -2.65625 2.40625 -2.1875 2.1875 -1.9375 L 0.515625 -0.265625 C 0.4375 -0.203125 0.4375 -0.1875 0.4375 0 L 3.3125 0 Z M 3.515625 -1.265625 "
           id="path1989" />
      </symbol>
      <symbol
         overflow="visible"
         id="symbol2833">
        <path
           style="stroke:none;"
           d=""
           id="path8105" />
      </symbol>
      <symbol
         overflow="visible"
         id="symbol6050">
        <path
           style="stroke:none;"
           d="M 2.171875 -2.53125 L 3 -2.53125 C 2.890625 -2.109375 2.734375 -1.484375 2.734375 -0.921875 C 2.734375 -0.640625 2.78125 -0.453125 2.8125 -0.3125 C 2.921875 0.046875 3.015625 0.0625 3.125 0.0625 C 3.296875 0.0625 3.453125 -0.078125 3.453125 -0.25 C 3.453125 -0.296875 3.4375 -0.328125 3.40625 -0.390625 C 3.265625 -0.65625 3.140625 -1.046875 3.140625 -1.625 C 3.140625 -1.75 3.140625 -2.03125 3.234375 -2.53125 L 4.109375 -2.53125 C 4.234375 -2.53125 4.296875 -2.53125 4.375 -2.578125 C 4.46875 -2.65625 4.484375 -2.765625 4.484375 -2.796875 C 4.484375 -3 4.3125 -3 4.1875 -3 L 1.5625 -3 C 1.28125 -3 1.078125 -2.9375 0.765625 -2.640625 C 0.578125 -2.484375 0.3125 -2.109375 0.3125 -2.046875 C 0.3125 -1.96875 0.40625 -1.96875 0.4375 -1.96875 C 0.515625 -1.96875 0.515625 -1.984375 0.5625 -2.046875 C 0.90625 -2.53125 1.34375 -2.53125 1.5 -2.53125 L 1.921875 -2.53125 C 1.703125 -1.765625 1.328125 -0.9375 1.125 -0.515625 C 1.078125 -0.4375 1.015625 -0.28125 0.984375 -0.265625 C 0.984375 -0.234375 0.96875 -0.203125 0.96875 -0.15625 C 0.96875 -0.046875 1.046875 0.0625 1.21875 0.0625 C 1.484375 0.0625 1.5625 -0.25 1.734375 -0.875 Z M 2.171875 -2.53125 "
           id="path6358" />
      </symbol>
    </g>
    <g
       id="g6804">
      <symbol
         overflow="visible"
         id="symbol2210">
        <path
           style="stroke:none;"
           d=""
           id="path1094" />
      </symbol>
      <symbol
         overflow="visible"
         id="symbol3343">
        <path
           style="stroke:none;"
           d="M 4.53125 -4.984375 C 4.53125 -5.640625 4.359375 -7.03125 3.34375 -7.03125 C 1.953125 -7.03125 0.421875 -4.21875 0.421875 -1.9375 C 0.421875 -1 0.703125 0.109375 1.609375 0.109375 C 3.015625 0.109375 4.53125 -2.75 4.53125 -4.984375 Z M 1.46875 -3.625 C 1.640625 -4.25 1.84375 -5.046875 2.25 -5.765625 C 2.515625 -6.25 2.875 -6.8125 3.328125 -6.8125 C 3.8125 -6.8125 3.875 -6.171875 3.875 -5.609375 C 3.875 -5.109375 3.796875 -4.609375 3.5625 -3.625 Z M 3.46875 -3.296875 C 3.359375 -2.84375 3.15625 -2 2.765625 -1.28125 C 2.421875 -0.59375 2.046875 -0.109375 1.609375 -0.109375 C 1.28125 -0.109375 1.078125 -0.40625 1.078125 -1.328125 C 1.078125 -1.75 1.140625 -2.328125 1.390625 -3.296875 Z M 3.46875 -3.296875 "
           id="path473" />
      </symbol>
      <symbol
         overflow="visible"
         id="symbol5388">
        <path
           style="stroke:none;"
           d="M 6.734375 -2.265625 C 6.84375 -2.328125 6.921875 -2.375 6.921875 -2.5 C 6.921875 -2.609375 6.84375 -2.65625 6.734375 -2.71875 L 1.203125 -5.3125 C 1.078125 -5.390625 1.0625 -5.390625 1.03125 -5.390625 C 0.921875 -5.390625 0.828125 -5.296875 0.828125 -5.1875 C 0.828125 -5.09375 0.875 -5.03125 1.015625 -4.96875 L 6.25 -2.5 L 1.015625 -0.015625 C 0.875 0.046875 0.828125 0.109375 0.828125 0.203125 C 0.828125 0.3125 0.921875 0.40625 1.03125 0.40625 C 1.0625 0.40625 1.078125 0.40625 1.203125 0.328125 Z M 6.734375 -2.265625 "
           id="path6041" />
      </symbol>
      <symbol
         overflow="visible"
         id="symbol8715">
        <path
           style="stroke:none;"
           d=""
           id="path8063" />
      </symbol>
      <symbol
         overflow="visible"
         id="symbol712">
        <path
           style="stroke:none;"
           d="M 3.515625 -1.265625 L 3.28125 -1.265625 C 3.265625 -1.109375 3.1875 -0.703125 3.09375 -0.640625 C 3.046875 -0.59375 2.515625 -0.59375 2.40625 -0.59375 L 1.125 -0.59375 C 1.859375 -1.234375 2.109375 -1.4375 2.515625 -1.765625 C 3.03125 -2.171875 3.515625 -2.609375 3.515625 -3.265625 C 3.515625 -4.109375 2.78125 -4.625 1.890625 -4.625 C 1.03125 -4.625 0.4375 -4.015625 0.4375 -3.375 C 0.4375 -3.03125 0.734375 -2.984375 0.8125 -2.984375 C 0.96875 -2.984375 1.171875 -3.109375 1.171875 -3.359375 C 1.171875 -3.484375 1.125 -3.734375 0.765625 -3.734375 C 0.984375 -4.21875 1.453125 -4.375 1.78125 -4.375 C 2.484375 -4.375 2.84375 -3.828125 2.84375 -3.265625 C 2.84375 -2.65625 2.40625 -2.1875 2.1875 -1.9375 L 0.515625 -0.265625 C 0.4375 -0.203125 0.4375 -0.1875 0.4375 0 L 3.3125 0 Z M 3.515625 -1.265625 "
           id="path7914" />
      </symbol>
      <symbol
         overflow="visible"
         id="symbol4004">
        <path
           style="stroke:none;"
           d=""
           id="path7487" />
      </symbol>
      <symbol
         overflow="visible"
         id="symbol6349">
        <path
           style="stroke:none;"
           d="M 2.171875 -2.53125 L 3 -2.53125 C 2.890625 -2.109375 2.734375 -1.484375 2.734375 -0.921875 C 2.734375 -0.640625 2.78125 -0.453125 2.8125 -0.3125 C 2.921875 0.046875 3.015625 0.0625 3.125 0.0625 C 3.296875 0.0625 3.453125 -0.078125 3.453125 -0.25 C 3.453125 -0.296875 3.4375 -0.328125 3.40625 -0.390625 C 3.265625 -0.65625 3.140625 -1.046875 3.140625 -1.625 C 3.140625 -1.75 3.140625 -2.03125 3.234375 -2.53125 L 4.109375 -2.53125 C 4.234375 -2.53125 4.296875 -2.53125 4.375 -2.578125 C 4.46875 -2.65625 4.484375 -2.765625 4.484375 -2.796875 C 4.484375 -3 4.3125 -3 4.1875 -3 L 1.5625 -3 C 1.28125 -3 1.078125 -2.9375 0.765625 -2.640625 C 0.578125 -2.484375 0.3125 -2.109375 0.3125 -2.046875 C 0.3125 -1.96875 0.40625 -1.96875 0.4375 -1.96875 C 0.515625 -1.96875 0.515625 -1.984375 0.5625 -2.046875 C 0.90625 -2.53125 1.34375 -2.53125 1.5 -2.53125 L 1.921875 -2.53125 C 1.703125 -1.765625 1.328125 -0.9375 1.125 -0.515625 C 1.078125 -0.4375 1.015625 -0.28125 0.984375 -0.265625 C 0.984375 -0.234375 0.96875 -0.203125 0.96875 -0.15625 C 0.96875 -0.046875 1.046875 0.0625 1.21875 0.0625 C 1.484375 0.0625 1.5625 -0.25 1.734375 -0.875 Z M 2.171875 -2.53125 "
           id="path9508" />
      </symbol>
    </g>
    <g
       id="g3043">
      <symbol
         overflow="visible"
         id="symbol2816">
        <path
           style="stroke:none;"
           d=""
           id="path7661" />
      </symbol>
      <symbol
         overflow="visible"
         id="symbol7048">
        <path
           style="stroke:none;"
           d="M 0.453125 1.21875 C 0.375 1.5625 0.34375 1.625 -0.09375 1.625 C -0.203125 1.625 -0.3125 1.625 -0.3125 1.8125 C -0.3125 1.890625 -0.265625 1.9375 -0.1875 1.9375 C 0.078125 1.9375 0.375 1.90625 0.640625 1.90625 C 0.984375 1.90625 1.3125 1.9375 1.640625 1.9375 C 1.6875 1.9375 1.8125 1.9375 1.8125 1.734375 C 1.8125 1.625 1.71875 1.625 1.578125 1.625 C 1.078125 1.625 1.078125 1.5625 1.078125 1.46875 C 1.078125 1.34375 1.5 -0.28125 1.5625 -0.53125 C 1.6875 -0.234375 1.96875 0.109375 2.484375 0.109375 C 3.640625 0.109375 4.890625 -1.34375 4.890625 -2.8125 C 4.890625 -3.75 4.3125 -4.40625 3.5625 -4.40625 C 3.0625 -4.40625 2.578125 -4.046875 2.25 -3.65625 C 2.15625 -4.203125 1.71875 -4.40625 1.359375 -4.40625 C 0.890625 -4.40625 0.703125 -4.015625 0.625 -3.84375 C 0.4375 -3.5 0.3125 -2.90625 0.3125 -2.875 C 0.3125 -2.765625 0.40625 -2.765625 0.421875 -2.765625 C 0.53125 -2.765625 0.53125 -2.78125 0.59375 -3 C 0.765625 -3.703125 0.96875 -4.1875 1.328125 -4.1875 C 1.5 -4.1875 1.640625 -4.109375 1.640625 -3.734375 C 1.640625 -3.5 1.609375 -3.390625 1.5625 -3.21875 Z M 2.203125 -3.109375 C 2.265625 -3.375 2.546875 -3.65625 2.71875 -3.8125 C 3.078125 -4.109375 3.359375 -4.1875 3.53125 -4.1875 C 3.921875 -4.1875 4.171875 -3.84375 4.171875 -3.25 C 4.171875 -2.65625 3.84375 -1.515625 3.65625 -1.140625 C 3.3125 -0.4375 2.84375 -0.109375 2.46875 -0.109375 C 1.8125 -0.109375 1.6875 -0.9375 1.6875 -1 C 1.6875 -1.015625 1.6875 -1.03125 1.71875 -1.15625 Z M 2.203125 -3.109375 "
           id="path5686" />
      </symbol>
    </g>
    <g
       id="g3354">
      <symbol
         overflow="visible"
         id="symbol5791">
        <path
           style="stroke:none;"
           d=""
           id="path2843" />
      </symbol>
      <symbol
         overflow="visible"
         id="symbol944">
        <path
           style="stroke:none;"
           d="M 4.5 -4.296875 C 4.5 -4.34375 4.46875 -4.390625 4.40625 -4.390625 C 4.296875 -4.390625 3.890625 -4 3.734375 -3.703125 C 3.515625 -4.25 3.125 -4.40625 2.796875 -4.40625 C 1.625 -4.40625 0.40625 -2.9375 0.40625 -1.484375 C 0.40625 -0.515625 0.984375 0.109375 1.71875 0.109375 C 2.140625 0.109375 2.53125 -0.125 2.890625 -0.484375 C 2.796875 -0.140625 2.46875 1.203125 2.4375 1.296875 C 2.359375 1.578125 2.28125 1.609375 1.71875 1.625 C 1.59375 1.625 1.5 1.625 1.5 1.828125 C 1.5 1.828125 1.5 1.9375 1.625 1.9375 C 1.9375 1.9375 2.296875 1.90625 2.625 1.90625 C 2.953125 1.90625 3.3125 1.9375 3.65625 1.9375 C 3.703125 1.9375 3.828125 1.9375 3.828125 1.734375 C 3.828125 1.625 3.734375 1.625 3.5625 1.625 C 3.09375 1.625 3.09375 1.5625 3.09375 1.46875 C 3.09375 1.390625 3.109375 1.328125 3.125 1.25 Z M 1.75 -0.109375 C 1.140625 -0.109375 1.109375 -0.875 1.109375 -1.046875 C 1.109375 -1.53125 1.390625 -2.609375 1.5625 -3.03125 C 1.875 -3.765625 2.390625 -4.1875 2.796875 -4.1875 C 3.453125 -4.1875 3.59375 -3.375 3.59375 -3.3125 C 3.59375 -3.25 3.046875 -1.0625 3.015625 -1.03125 C 2.859375 -0.75 2.296875 -0.109375 1.75 -0.109375 Z M 1.75 -0.109375 "
           id="path5810" />
      </symbol>
    </g>
    <g
       id="g6496">
      <symbol
         overflow="visible"
         id="symbol7576">
        <path
           style="stroke:none;"
           d=""
           id="path806" />
      </symbol>
      <symbol
         overflow="visible"
         id="symbol5297">
        <path
           style="stroke:none;"
           d="M 3.953125 -3.78125 C 3.78125 -3.78125 3.65625 -3.78125 3.515625 -3.65625 C 3.34375 -3.5 3.328125 -3.328125 3.328125 -3.265625 C 3.328125 -3.015625 3.515625 -2.90625 3.703125 -2.90625 C 3.984375 -2.90625 4.25 -3.15625 4.25 -3.546875 C 4.25 -4.03125 3.78125 -4.40625 3.078125 -4.40625 C 1.734375 -4.40625 0.40625 -2.984375 0.40625 -1.578125 C 0.40625 -0.671875 0.984375 0.109375 2.03125 0.109375 C 3.453125 0.109375 4.28125 -0.953125 4.28125 -1.0625 C 4.28125 -1.125 4.234375 -1.203125 4.171875 -1.203125 C 4.109375 -1.203125 4.09375 -1.171875 4.03125 -1.09375 C 3.25 -0.109375 2.15625 -0.109375 2.046875 -0.109375 C 1.421875 -0.109375 1.140625 -0.59375 1.140625 -1.203125 C 1.140625 -1.609375 1.34375 -2.578125 1.6875 -3.1875 C 2 -3.765625 2.546875 -4.1875 3.09375 -4.1875 C 3.421875 -4.1875 3.8125 -4.0625 3.953125 -3.78125 Z M 3.953125 -3.78125 "
           id="path7896" />
      </symbol>
    </g>
    <g
       id="g2100">
      <symbol
         overflow="visible"
         id="symbol3819">
        <path
           style="stroke:none;"
           d=""
           id="path5567" />
      </symbol>
      <symbol
         overflow="visible"
         id="symbol438">
        <path
           style="stroke:none;"
           d="M 1.265625 -0.765625 L 2.328125 -1.796875 C 3.875 -3.171875 4.46875 -3.703125 4.46875 -4.703125 C 4.46875 -5.84375 3.578125 -6.640625 2.359375 -6.640625 C 1.234375 -6.640625 0.5 -5.71875 0.5 -4.828125 C 0.5 -4.28125 1 -4.28125 1.03125 -4.28125 C 1.203125 -4.28125 1.546875 -4.390625 1.546875 -4.8125 C 1.546875 -5.0625 1.359375 -5.328125 1.015625 -5.328125 C 0.9375 -5.328125 0.921875 -5.328125 0.890625 -5.3125 C 1.109375 -5.96875 1.65625 -6.328125 2.234375 -6.328125 C 3.140625 -6.328125 3.5625 -5.515625 3.5625 -4.703125 C 3.5625 -3.90625 3.078125 -3.125 2.515625 -2.5 L 0.609375 -0.375 C 0.5 -0.265625 0.5 -0.234375 0.5 0 L 4.203125 0 L 4.46875 -1.734375 L 4.234375 -1.734375 C 4.171875 -1.4375 4.109375 -1 4 -0.84375 C 3.9375 -0.765625 3.28125 -0.765625 3.0625 -0.765625 Z M 1.265625 -0.765625 "
           id="path8793" />
      </symbol>
      <symbol
         overflow="visible"
         id="symbol1341">
        <path
           style="stroke:none;"
           d=""
           id="path3963" />
      </symbol>
      <symbol
         overflow="visible"
         id="symbol1885">
        <path
           style="stroke:none;"
           d="M 3.953125 -3.78125 C 3.78125 -3.78125 3.65625 -3.78125 3.515625 -3.65625 C 3.34375 -3.5 3.328125 -3.328125 3.328125 -3.265625 C 3.328125 -3.015625 3.515625 -2.90625 3.703125 -2.90625 C 3.984375 -2.90625 4.25 -3.15625 4.25 -3.546875 C 4.25 -4.03125 3.78125 -4.40625 3.078125 -4.40625 C 1.734375 -4.40625 0.40625 -2.984375 0.40625 -1.578125 C 0.40625 -0.671875 0.984375 0.109375 2.03125 0.109375 C 3.453125 0.109375 4.28125 -0.953125 4.28125 -1.0625 C 4.28125 -1.125 4.234375 -1.203125 4.171875 -1.203125 C 4.109375 -1.203125 4.09375 -1.171875 4.03125 -1.09375 C 3.25 -0.109375 2.15625 -0.109375 2.046875 -0.109375 C 1.421875 -0.109375 1.140625 -0.59375 1.140625 -1.203125 C 1.140625 -1.609375 1.34375 -2.578125 1.6875 -3.1875 C 2 -3.765625 2.546875 -4.1875 3.09375 -4.1875 C 3.421875 -4.1875 3.8125 -4.0625 3.953125 -3.78125 Z M 3.953125 -3.78125 "
           id="path6644" />
      </symbol>
    </g>
    <g
       id="g4237">
      <symbol
         overflow="visible"
         id="symbol8611">
        <path
           style="stroke:none;"
           d=""
           id="path3845" />
      </symbol>
      <symbol
         overflow="visible"
         id="symbol7328">
        <path
           style="stroke:none;"
           d="M 1.265625 -0.765625 L 2.328125 -1.796875 C 3.875 -3.171875 4.46875 -3.703125 4.46875 -4.703125 C 4.46875 -5.84375 3.578125 -6.640625 2.359375 -6.640625 C 1.234375 -6.640625 0.5 -5.71875 0.5 -4.828125 C 0.5 -4.28125 1 -4.28125 1.03125 -4.28125 C 1.203125 -4.28125 1.546875 -4.390625 1.546875 -4.8125 C 1.546875 -5.0625 1.359375 -5.328125 1.015625 -5.328125 C 0.9375 -5.328125 0.921875 -5.328125 0.890625 -5.3125 C 1.109375 -5.96875 1.65625 -6.328125 2.234375 -6.328125 C 3.140625 -6.328125 3.5625 -5.515625 3.5625 -4.703125 C 3.5625 -3.90625 3.078125 -3.125 2.515625 -2.5 L 0.609375 -0.375 C 0.5 -0.265625 0.5 -0.234375 0.5 0 L 4.203125 0 L 4.46875 -1.734375 L 4.234375 -1.734375 C 4.171875 -1.4375 4.109375 -1 4 -0.84375 C 3.9375 -0.765625 3.28125 -0.765625 3.0625 -0.765625 Z M 1.265625 -0.765625 "
           id="path51" />
      </symbol>
      <symbol
         overflow="visible"
         id="symbol1762">
        <path
           style="stroke:none;"
           d=""
           id="path695" />
      </symbol>
      <symbol
         overflow="visible"
         id="symbol4160">
        <path
           style="stroke:none;"
           d="M 3.953125 -3.78125 C 3.78125 -3.78125 3.65625 -3.78125 3.515625 -3.65625 C 3.34375 -3.5 3.328125 -3.328125 3.328125 -3.265625 C 3.328125 -3.015625 3.515625 -2.90625 3.703125 -2.90625 C 3.984375 -2.90625 4.25 -3.15625 4.25 -3.546875 C 4.25 -4.03125 3.78125 -4.40625 3.078125 -4.40625 C 1.734375 -4.40625 0.40625 -2.984375 0.40625 -1.578125 C 0.40625 -0.671875 0.984375 0.109375 2.03125 0.109375 C 3.453125 0.109375 4.28125 -0.953125 4.28125 -1.0625 C 4.28125 -1.125 4.234375 -1.203125 4.171875 -1.203125 C 4.109375 -1.203125 4.09375 -1.171875 4.03125 -1.09375 C 3.25 -0.109375 2.15625 -0.109375 2.046875 -0.109375 C 1.421875 -0.109375 1.140625 -0.59375 1.140625 -1.203125 C 1.140625 -1.609375 1.34375 -2.578125 1.6875 -3.1875 C 2 -3.765625 2.546875 -4.1875 3.09375 -4.1875 C 3.421875 -4.1875 3.8125 -4.0625 3.953125 -3.78125 Z M 3.953125 -3.78125 "
           id="path5968" />
      </symbol>
    </g>
    <g
       id="g7602">
      <symbol
         overflow="visible"
         id="symbol1825">
        <path
           style="stroke:none;"
           d=""
           id="path7939" />
      </symbol>
      <symbol
         overflow="visible"
         id="symbol405">
        <path
           style="stroke:none;"
           d="M 1.265625 -0.765625 L 2.328125 -1.796875 C 3.875 -3.171875 4.46875 -3.703125 4.46875 -4.703125 C 4.46875 -5.84375 3.578125 -6.640625 2.359375 -6.640625 C 1.234375 -6.640625 0.5 -5.71875 0.5 -4.828125 C 0.5 -4.28125 1 -4.28125 1.03125 -4.28125 C 1.203125 -4.28125 1.546875 -4.390625 1.546875 -4.8125 C 1.546875 -5.0625 1.359375 -5.328125 1.015625 -5.328125 C 0.9375 -5.328125 0.921875 -5.328125 0.890625 -5.3125 C 1.109375 -5.96875 1.65625 -6.328125 2.234375 -6.328125 C 3.140625 -6.328125 3.5625 -5.515625 3.5625 -4.703125 C 3.5625 -3.90625 3.078125 -3.125 2.515625 -2.5 L 0.609375 -0.375 C 0.5 -0.265625 0.5 -0.234375 0.5 0 L 4.203125 0 L 4.46875 -1.734375 L 4.234375 -1.734375 C 4.171875 -1.4375 4.109375 -1 4 -0.84375 C 3.9375 -0.765625 3.28125 -0.765625 3.0625 -0.765625 Z M 1.265625 -0.765625 "
           id="path9194" />
      </symbol>
      <symbol
         overflow="visible"
         id="symbol1529">
        <path
           style="stroke:none;"
           d="M 2.34375 -2.484375 C 2.34375 -3.734375 3.3125 -4.453125 3.65625 -4.703125 C 3.921875 -4.90625 4.140625 -5.265625 4.140625 -5.6875 C 4.140625 -6.265625 3.734375 -7.03125 2.25 -7.03125 C 1.171875 -7.03125 0.5625 -6.34375 0.5625 -5.703125 C 0.5625 -5.359375 0.78125 -5.21875 1.015625 -5.21875 C 1.296875 -5.21875 1.46875 -5.421875 1.46875 -5.6875 C 1.46875 -6.125 1.0625 -6.125 0.921875 -6.125 C 1.21875 -6.65625 1.796875 -6.8125 2.21875 -6.8125 C 3.3125 -6.8125 3.3125 -6.125 3.3125 -5.734375 C 3.3125 -5.15625 3.15625 -4.96875 2.96875 -4.796875 C 2.3125 -4.078125 2.09375 -3.15625 2.09375 -2.546875 L 2.09375 -2.109375 C 2.09375 -1.921875 2.09375 -1.859375 2.21875 -1.859375 C 2.34375 -1.859375 2.34375 -1.953125 2.34375 -2.140625 Z M 2.734375 -0.53125 C 2.734375 -0.8125 2.5 -1.0625 2.21875 -1.0625 C 1.921875 -1.0625 1.6875 -0.8125 1.6875 -0.53125 C 1.6875 -0.234375 1.921875 0 2.21875 0 C 2.5 0 2.734375 -0.234375 2.734375 -0.53125 Z M 2.734375 -0.53125 "
           id="path9392" />
      </symbol>
      <symbol
         overflow="visible"
         id="symbol7643">
        <path
           style="stroke:none;"
           d=""
           id="path5815" />
      </symbol>
      <symbol
         overflow="visible"
         id="symbol1623">
        <path
           style="stroke:none;"
           d="M 3.953125 -3.78125 C 3.78125 -3.78125 3.65625 -3.78125 3.515625 -3.65625 C 3.34375 -3.5 3.328125 -3.328125 3.328125 -3.265625 C 3.328125 -3.015625 3.515625 -2.90625 3.703125 -2.90625 C 3.984375 -2.90625 4.25 -3.15625 4.25 -3.546875 C 4.25 -4.03125 3.78125 -4.40625 3.078125 -4.40625 C 1.734375 -4.40625 0.40625 -2.984375 0.40625 -1.578125 C 0.40625 -0.671875 0.984375 0.109375 2.03125 0.109375 C 3.453125 0.109375 4.28125 -0.953125 4.28125 -1.0625 C 4.28125 -1.125 4.234375 -1.203125 4.171875 -1.203125 C 4.109375 -1.203125 4.09375 -1.171875 4.03125 -1.09375 C 3.25 -0.109375 2.15625 -0.109375 2.046875 -0.109375 C 1.421875 -0.109375 1.140625 -0.59375 1.140625 -1.203125 C 1.140625 -1.609375 1.34375 -2.578125 1.6875 -3.1875 C 2 -3.765625 2.546875 -4.1875 3.09375 -4.1875 C 3.421875 -4.1875 3.8125 -4.0625 3.953125 -3.78125 Z M 3.953125 -3.78125 "
           id="path9864" />
      </symbol>
    </g>
  </defs>
  <g
     inkscape:label="Layer 1"
     inkscape:groupmode="layer"
     id="layer1">
    <path
       id="rect846"
       style="fill:none;stroke:#000000;stroke-width:0.25;stroke-linecap:round;stroke-linejoin:round;stop-color:#000000"
       d="m 11.718269,118.54396 h 39.331863 39.33187 v 39.33186 39.33187 H 51.050132 11.718269 v -39.33187 z"
       sodipodi:nodetypes="ccccccccc" />
    <path
       style="fill:none;stroke:#000000;stroke-width:0.264583px;stroke-linecap:butt;stroke-linejoin:miter;stroke-opacity:1"
       d="M 11.718267,118.54396 90.382012,197.2077"
       id="path983"
       sodipodi:nodetypes="cc" />
    <path
       style="fill:none;stroke:#000000;stroke-width:0.264583px;stroke-linecap:butt;stroke-linejoin:miter;stroke-opacity:1"
       d="M 169.04576,118.54396 90.382012,197.2077"
       id="path983-9"
       sodipodi:nodetypes="cc" />
    <path
       style="fill:none;stroke:#000000;stroke-width:0.264583px;stroke-linecap:butt;stroke-linejoin:miter;stroke-opacity:1"
       d="m 11.718267,197.2077 39.331875,-39.33187 39.33187,-39.33187"
       id="path985"
       sodipodi:nodetypes="ccc" />
    <path
       style="fill:none;stroke:#000000;stroke-width:0.264583px;stroke-linecap:butt;stroke-linejoin:miter;stroke-opacity:1"
       d="M 51.051612,118.39351 V 197.261"
       id="path2067" />
    <path
       style="fill:none;stroke:#000000;stroke-width:0.264583px;stroke-linecap:butt;stroke-linejoin:miter;stroke-opacity:1"
       d="m 11.598292,157.78976 h 78.86749"
       id="path2067-3" />
    <text
       xml:space="preserve"
       style="font-size:4.23333px;line-height:1.25;font-family:Sans;-inkscape-font-specification:'Sans, Normal';font-variant-ligatures:none;stroke-width:0.264583"
       x="114.13065"
       y="77.646118"
       id="text16233"><tspan
         sodipodi:role="line"
         id="tspan16231"
         style="stroke-width:0.264583" /></text>
    <circle
       style="fill:#000000;fill-opacity:1;stroke:#000000;stroke-width:0.25;stroke-linecap:round;stroke-linejoin:round;stroke-miterlimit:4;stroke-dasharray:none;stop-color:#000000"
       id="path43998"
       cx="51.037262"
       cy="118.56448"
       r="0.6888532" />
    <circle
       style="fill:#000000;fill-opacity:1;stroke:#000000;stroke-width:0.25;stroke-linecap:round;stroke-linejoin:round;stroke-miterlimit:4;stroke-dasharray:none;stop-color:#000000"
       id="path43998-3"
       cx="190.91533"
       cy="76.879768"
       r="0.6888532" />
    <circle
       style="fill:#000000;fill-opacity:1;stroke:#000000;stroke-width:0.25;stroke-linecap:round;stroke-linejoin:round;stroke-miterlimit:4;stroke-dasharray:none;stop-color:#000000"
       id="path43998-4"
       cx="51.07016"
       cy="157.83517"
       r="0.6888532" />
    <circle
       style="fill:#000000;fill-opacity:1;stroke:#000000;stroke-width:0.25;stroke-linecap:round;stroke-linejoin:round;stroke-miterlimit:4;stroke-dasharray:none;stop-color:#000000"
       id="path43998-6"
       cx="90.242928"
       cy="196.87102"
       r="0.6888532" />
    <g
       id="g45602"
       transform="translate(-9.3623582,52.875821)">
      <path
         style="fill:none;stroke:#000000;stroke-width:0.264583px;stroke-linecap:butt;stroke-linejoin:miter;stroke-opacity:1"
         d="m 99.74437,65.668135 h 78.39318"
         id="path44712" />
      <path
         style="fill:none;stroke:#000000;stroke-width:0.264583px;stroke-linecap:butt;stroke-linejoin:miter;stroke-opacity:1"
         d="m 99.74437,65.668135 v -4.01781"
         id="path44714" />
      <path
         style="fill:none;stroke:#000000;stroke-width:0.264583px;stroke-linecap:butt;stroke-linejoin:miter;stroke-opacity:1"
         d="m 100.96339,65.668135 v -4.01781"
         id="path44714-4" />
      <path
         style="fill:none;stroke:#000000;stroke-width:0.264583px;stroke-linecap:butt;stroke-linejoin:miter;stroke-opacity:1"
         d="m 102.1824,65.668135 v -4.01781"
         id="path44714-2" />
      <path
         style="fill:none;stroke:#000000;stroke-width:0.264583px;stroke-linecap:butt;stroke-linejoin:miter;stroke-opacity:1"
         d="m 103.40143,65.668135 v -4.01781"
         id="path44714-26" />
      <path
         style="fill:none;stroke:#000000;stroke-width:0.264583px;stroke-linecap:butt;stroke-linejoin:miter;stroke-opacity:1"
         d="m 104.62045,65.668135 v -4.01781"
         id="path44714-41" />
      <path
         style="fill:none;stroke:#000000;stroke-width:0.264583px;stroke-linecap:butt;stroke-linejoin:miter;stroke-opacity:1"
         d="m 105.83947,65.668135 v -4.01781"
         id="path44714-28" />
      <path
         style="fill:none;stroke:#000000;stroke-width:0.264583px;stroke-linecap:butt;stroke-linejoin:miter;stroke-opacity:1"
         d="m 107.05848,65.668135 v -4.01781"
         id="path44714-8" />
      <path
         style="fill:none;stroke:#000000;stroke-width:0.264583px;stroke-linecap:butt;stroke-linejoin:miter;stroke-opacity:1"
         d="m 108.27751,65.668135 v -4.01781"
         id="path44714-9" />
      <path
         style="fill:none;stroke:#000000;stroke-width:0.264583px;stroke-linecap:butt;stroke-linejoin:miter;stroke-opacity:1"
         d="m 109.49652,65.668135 v -4.01781"
         id="path44714-288" />
      <path
         style="fill:none;stroke:#000000;stroke-width:0.264583px;stroke-linecap:butt;stroke-linejoin:miter;stroke-opacity:1"
         d="m 110.71554,65.668135 v -4.01781"
         id="path44714-86" />
      <path
         style="fill:none;stroke:#000000;stroke-width:0.264583px;stroke-linecap:butt;stroke-linejoin:miter;stroke-opacity:1"
         d="m 111.93455,65.668135 v -4.01781"
         id="path44714-83" />
      <path
         style="fill:none;stroke:#000000;stroke-width:0.264583px;stroke-linecap:butt;stroke-linejoin:miter;stroke-opacity:1"
         d="m 113.15357,65.668135 v -4.01781"
         id="path44714-833" />
      <path
         style="fill:none;stroke:#000000;stroke-width:0.264583px;stroke-linecap:butt;stroke-linejoin:miter;stroke-opacity:1"
         d="m 114.37259,65.668135 v -4.01781"
         id="path44714-3" />
      <path
         style="fill:none;stroke:#000000;stroke-width:0.264583px;stroke-linecap:butt;stroke-linejoin:miter;stroke-opacity:1"
         d="m 115.59162,65.668135 v -4.01781"
         id="path44714-80" />
      <path
         style="fill:none;stroke:#000000;stroke-width:0.264583px;stroke-linecap:butt;stroke-linejoin:miter;stroke-opacity:1"
         d="m 116.81063,65.668135 v -4.01781"
         id="path44714-47" />
      <path
         style="fill:none;stroke:#000000;stroke-width:0.264583px;stroke-linecap:butt;stroke-linejoin:miter;stroke-opacity:1"
         d="m 116.81063,65.668135 v -4.01781"
         id="path44714-6" />
      <path
         style="fill:none;stroke:#000000;stroke-width:0.264583px;stroke-linecap:butt;stroke-linejoin:miter;stroke-opacity:1"
         d="m 118.02965,65.668135 v -4.01781"
         id="path44714-4-8" />
      <path
         style="fill:none;stroke:#000000;stroke-width:0.264583px;stroke-linecap:butt;stroke-linejoin:miter;stroke-opacity:1"
         d="m 119.24866,65.668135 v -4.01781"
         id="path44714-2-9" />
      <path
         style="fill:none;stroke:#000000;stroke-width:0.264583px;stroke-linecap:butt;stroke-linejoin:miter;stroke-opacity:1"
         d="m 120.46769,65.668135 v -4.01781"
         id="path44714-26-0" />
      <path
         style="fill:none;stroke:#000000;stroke-width:0.264583px;stroke-linecap:butt;stroke-linejoin:miter;stroke-opacity:1"
         d="m 121.68671,65.668135 v -4.01781"
         id="path44714-41-6" />
      <path
         style="fill:none;stroke:#000000;stroke-width:0.264583px;stroke-linecap:butt;stroke-linejoin:miter;stroke-opacity:1"
         d="m 122.90573,65.668135 v -4.01781"
         id="path44714-28-8" />
      <path
         style="fill:none;stroke:#000000;stroke-width:0.264583px;stroke-linecap:butt;stroke-linejoin:miter;stroke-opacity:1"
         d="m 124.12474,65.668135 v -4.01781"
         id="path44714-8-7" />
      <path
         style="fill:none;stroke:#000000;stroke-width:0.264583px;stroke-linecap:butt;stroke-linejoin:miter;stroke-opacity:1"
         d="m 125.34377,65.668135 v -4.01781"
         id="path44714-9-9" />
      <path
         style="fill:none;stroke:#000000;stroke-width:0.264583px;stroke-linecap:butt;stroke-linejoin:miter;stroke-opacity:1"
         d="m 126.56278,65.668135 v -4.01781"
         id="path44714-288-0" />
      <path
         style="fill:none;stroke:#000000;stroke-width:0.264583px;stroke-linecap:butt;stroke-linejoin:miter;stroke-opacity:1"
         d="m 127.7818,65.668135 v -4.01781"
         id="path44714-86-3" />
      <path
         style="fill:none;stroke:#000000;stroke-width:0.264583px;stroke-linecap:butt;stroke-linejoin:miter;stroke-opacity:1"
         d="m 129.00081,65.668135 v -4.01781"
         id="path44714-83-3" />
      <path
         style="fill:none;stroke:#000000;stroke-width:0.264583px;stroke-linecap:butt;stroke-linejoin:miter;stroke-opacity:1"
         d="m 130.21983,65.668135 v -4.01781"
         id="path44714-833-3" />
      <path
         style="fill:none;stroke:#000000;stroke-width:0.264583px;stroke-linecap:butt;stroke-linejoin:miter;stroke-opacity:1"
         d="m 131.43885,65.668135 v -4.01781"
         id="path44714-3-7" />
      <path
         style="fill:none;stroke:#000000;stroke-width:0.264583px;stroke-linecap:butt;stroke-linejoin:miter;stroke-opacity:1"
         d="m 132.65788,65.668135 v -4.01781"
         id="path44714-80-3" />
      <path
         style="fill:none;stroke:#000000;stroke-width:0.264583px;stroke-linecap:butt;stroke-linejoin:miter;stroke-opacity:1"
         d="m 133.87689,65.668135 v -4.01781"
         id="path44714-47-2" />
      <path
         style="fill:none;stroke:#000000;stroke-width:0.264583px;stroke-linecap:butt;stroke-linejoin:miter;stroke-opacity:1"
         d="m 133.87689,65.668135 v -4.01781"
         id="path44714-65" />
      <path
         style="fill:none;stroke:#000000;stroke-width:0.264583px;stroke-linecap:butt;stroke-linejoin:miter;stroke-opacity:1"
         d="m 135.09591,65.668135 v -4.01781"
         id="path44714-4-2" />
      <path
         style="fill:none;stroke:#000000;stroke-width:0.264583px;stroke-linecap:butt;stroke-linejoin:miter;stroke-opacity:1"
         d="m 136.31492,65.668135 v -4.01781"
         id="path44714-2-6" />
      <path
         style="fill:none;stroke:#000000;stroke-width:0.264583px;stroke-linecap:butt;stroke-linejoin:miter;stroke-opacity:1"
         d="m 137.53395,65.668135 v -4.01781"
         id="path44714-26-5" />
      <path
         style="fill:none;stroke:#000000;stroke-width:0.264583px;stroke-linecap:butt;stroke-linejoin:miter;stroke-opacity:1"
         d="m 138.75297,65.668135 v -4.01781"
         id="path44714-41-8" />
      <path
         style="fill:none;stroke:#000000;stroke-width:0.264583px;stroke-linecap:butt;stroke-linejoin:miter;stroke-opacity:1"
         d="m 139.97199,65.668135 v -4.01781"
         id="path44714-28-7" />
      <path
         style="fill:none;stroke:#000000;stroke-width:0.264583px;stroke-linecap:butt;stroke-linejoin:miter;stroke-opacity:1"
         d="m 141.191,65.668135 v -4.01781"
         id="path44714-8-9" />
      <path
         style="fill:none;stroke:#000000;stroke-width:0.264583px;stroke-linecap:butt;stroke-linejoin:miter;stroke-opacity:1"
         d="m 142.41003,65.668135 v -4.01781"
         id="path44714-9-6" />
      <path
         style="fill:none;stroke:#000000;stroke-width:0.264583px;stroke-linecap:butt;stroke-linejoin:miter;stroke-opacity:1"
         d="m 143.62904,65.668135 v -4.01781"
         id="path44714-288-04" />
      <path
         style="fill:none;stroke:#000000;stroke-width:0.264583px;stroke-linecap:butt;stroke-linejoin:miter;stroke-opacity:1"
         d="m 144.84806,65.668135 v -4.01781"
         id="path44714-86-1" />
      <path
         style="fill:none;stroke:#000000;stroke-width:0.264583px;stroke-linecap:butt;stroke-linejoin:miter;stroke-opacity:1"
         d="m 146.06707,65.668135 v -4.01781"
         id="path44714-83-0" />
      <path
         style="fill:none;stroke:#000000;stroke-width:0.264583px;stroke-linecap:butt;stroke-linejoin:miter;stroke-opacity:1"
         d="m 147.28609,65.668135 v -4.01781"
         id="path44714-833-4" />
      <path
         style="fill:none;stroke:#000000;stroke-width:0.264583px;stroke-linecap:butt;stroke-linejoin:miter;stroke-opacity:1"
         d="m 148.50511,65.668135 v -4.01781"
         id="path44714-3-8" />
      <path
         style="fill:none;stroke:#000000;stroke-width:0.264583px;stroke-linecap:butt;stroke-linejoin:miter;stroke-opacity:1"
         d="m 149.72414,65.668135 v -4.01781"
         id="path44714-80-7" />
      <path
         style="fill:none;stroke:#000000;stroke-width:0.264583px;stroke-linecap:butt;stroke-linejoin:miter;stroke-opacity:1"
         d="m 150.94315,65.668135 v -4.01781"
         id="path44714-47-0" />
      <path
         style="fill:none;stroke:#000000;stroke-width:0.264583px;stroke-linecap:butt;stroke-linejoin:miter;stroke-opacity:1"
         d="m 150.94315,65.668135 v -4.01781"
         id="path44714-862" />
      <path
         style="fill:none;stroke:#000000;stroke-width:0.264583px;stroke-linecap:butt;stroke-linejoin:miter;stroke-opacity:1"
         d="m 152.16217,65.668135 v -4.01781"
         id="path44714-4-4" />
      <path
         style="fill:none;stroke:#000000;stroke-width:0.264583px;stroke-linecap:butt;stroke-linejoin:miter;stroke-opacity:1"
         d="m 153.38118,65.668135 v -4.01781"
         id="path44714-2-7" />
      <path
         style="fill:none;stroke:#000000;stroke-width:0.264583px;stroke-linecap:butt;stroke-linejoin:miter;stroke-opacity:1"
         d="m 154.60021,65.668135 v -4.01781"
         id="path44714-26-9" />
      <path
         style="fill:none;stroke:#000000;stroke-width:0.264583px;stroke-linecap:butt;stroke-linejoin:miter;stroke-opacity:1"
         d="m 155.81923,65.668135 v -4.01781"
         id="path44714-41-3" />
      <path
         style="fill:none;stroke:#000000;stroke-width:0.264583px;stroke-linecap:butt;stroke-linejoin:miter;stroke-opacity:1"
         d="m 157.03825,65.668135 v -4.01781"
         id="path44714-28-9" />
      <path
         style="fill:none;stroke:#000000;stroke-width:0.264583px;stroke-linecap:butt;stroke-linejoin:miter;stroke-opacity:1"
         d="m 158.25726,65.668135 v -4.01781"
         id="path44714-8-2" />
      <path
         style="fill:none;stroke:#000000;stroke-width:0.264583px;stroke-linecap:butt;stroke-linejoin:miter;stroke-opacity:1"
         d="m 159.47629,65.668135 v -4.01781"
         id="path44714-9-8" />
      <path
         style="fill:none;stroke:#000000;stroke-width:0.264583px;stroke-linecap:butt;stroke-linejoin:miter;stroke-opacity:1"
         d="m 160.6953,65.668135 v -4.01781"
         id="path44714-288-3" />
      <path
         style="fill:none;stroke:#000000;stroke-width:0.264583px;stroke-linecap:butt;stroke-linejoin:miter;stroke-opacity:1"
         d="m 161.91432,65.668135 v -4.01781"
         id="path44714-86-0" />
      <path
         style="fill:none;stroke:#000000;stroke-width:0.264583px;stroke-linecap:butt;stroke-linejoin:miter;stroke-opacity:1"
         d="m 163.13333,65.668135 v -4.01781"
         id="path44714-83-1" />
      <path
         style="fill:none;stroke:#000000;stroke-width:0.264583px;stroke-linecap:butt;stroke-linejoin:miter;stroke-opacity:1"
         d="m 168.00941,65.668135 v -4.01781"
         id="path44714-25" />
      <path
         style="fill:none;stroke:#000000;stroke-width:0.264583px;stroke-linecap:butt;stroke-linejoin:miter;stroke-opacity:1"
         d="m 169.22843,65.668135 v -4.01781"
         id="path44714-4-7" />
      <path
         style="fill:none;stroke:#000000;stroke-width:0.264583px;stroke-linecap:butt;stroke-linejoin:miter;stroke-opacity:1"
         d="m 170.44744,65.668135 v -4.01781"
         id="path44714-2-4" />
      <path
         style="fill:none;stroke:#000000;stroke-width:0.264583px;stroke-linecap:butt;stroke-linejoin:miter;stroke-opacity:1"
         d="m 171.66647,65.668135 v -4.01781"
         id="path44714-26-99" />
      <path
         style="fill:none;stroke:#000000;stroke-width:0.264583px;stroke-linecap:butt;stroke-linejoin:miter;stroke-opacity:1"
         d="m 172.88549,65.668135 v -4.01781"
         id="path44714-41-4" />
      <path
         style="fill:none;stroke:#000000;stroke-width:0.264583px;stroke-linecap:butt;stroke-linejoin:miter;stroke-opacity:1"
         d="m 174.10451,65.668135 v -4.01781"
         id="path44714-28-5" />
      <path
         style="fill:none;stroke:#000000;stroke-width:0.264583px;stroke-linecap:butt;stroke-linejoin:miter;stroke-opacity:1"
         d="m 175.32352,65.668135 v -4.01781"
         id="path44714-8-93" />
      <path
         style="fill:none;stroke:#000000;stroke-width:0.264583px;stroke-linecap:butt;stroke-linejoin:miter;stroke-opacity:1"
         d="m 176.54255,65.668135 v -4.01781"
         id="path44714-9-5" />
      <path
         style="fill:none;stroke:#000000;stroke-width:0.264583px;stroke-linecap:butt;stroke-linejoin:miter;stroke-opacity:1"
         d="m 177.76156,65.668135 v -4.01781"
         id="path44714-288-7" />
      <path
         style="fill:none;stroke:#000000;stroke-width:0.264583px;stroke-linecap:butt;stroke-linejoin:miter;stroke-opacity:1"
         d="m 178.98058,65.668135 v -4.01781"
         id="path44714-86-08" />
      <path
         style="fill:none;stroke:#000000;stroke-width:0.264583px;stroke-linecap:butt;stroke-linejoin:miter;stroke-opacity:1"
         d="m 180.19959,65.668135 v -4.01781"
         id="path44714-83-19" />
      <path
         style="fill:none;stroke:#000000;stroke-width:0.264583px;stroke-linecap:butt;stroke-linejoin:miter;stroke-opacity:1"
         d="m 181.41861,65.668135 v -4.01781"
         id="path44714-833-9" />
      <path
         style="fill:none;stroke:#000000;stroke-width:0.264583px;stroke-linecap:butt;stroke-linejoin:miter;stroke-opacity:1"
         d="m 182.63763,65.668135 v -4.01781"
         id="path44714-3-78" />
      <path
         style="fill:none;stroke:#000000;stroke-width:0.264583px;stroke-linecap:butt;stroke-linejoin:miter;stroke-opacity:1"
         d="m 183.85666,65.668135 v -4.01781"
         id="path44714-80-2" />
      <path
         style="fill:none;stroke:#000000;stroke-width:0.264583px;stroke-linecap:butt;stroke-linejoin:miter;stroke-opacity:1"
         d="m 185.07567,65.668135 v -4.01781"
         id="path44714-47-53" />
      <path
         style="fill:none;stroke:#000000;stroke-width:0.264583px;stroke-linecap:butt;stroke-linejoin:miter;stroke-opacity:1"
         d="m 164.35235,65.668135 v -4.01781"
         id="path44714-833-7" />
      <path
         style="fill:none;stroke:#000000;stroke-width:0.264583px;stroke-linecap:butt;stroke-linejoin:miter;stroke-opacity:1"
         d="m 165.57137,65.668135 v -4.01781"
         id="path44714-3-89" />
      <path
         style="fill:none;stroke:#000000;stroke-width:0.264583px;stroke-linecap:butt;stroke-linejoin:miter;stroke-opacity:1"
         d="m 166.7904,65.668135 v -4.01781"
         id="path44714-80-1" />
      <path
         style="fill:none;stroke:#000000;stroke-width:0.264583px;stroke-linecap:butt;stroke-linejoin:miter;stroke-opacity:1"
         d="m 168.00941,65.668135 v -4.01781"
         id="path44714-47-5" />
    </g>
    <g
       id="g46237"
       transform="translate(-7.4967882,52.875821)">
      <path
         style="fill:none;stroke:#000000;stroke-width:0.264583px;stroke-linecap:butt;stroke-linejoin:miter;stroke-opacity:1"
         d="m 119.04523,128.8475 -2.84102,-2.84102"
         id="path44714-0" />
      <path
         style="fill:none;stroke:#000000;stroke-width:0.264583px;stroke-linecap:butt;stroke-linejoin:miter;stroke-opacity:1"
         d="m 119.90721,127.98552 -2.84102,-2.84102"
         id="path44714-4-20" />
      <path
         style="fill:none;stroke:#000000;stroke-width:0.264583px;stroke-linecap:butt;stroke-linejoin:miter;stroke-opacity:1"
         d="m 120.76918,127.12355 -2.84102,-2.84102"
         id="path44714-2-1" />
      <path
         style="fill:none;stroke:#000000;stroke-width:0.264583px;stroke-linecap:butt;stroke-linejoin:miter;stroke-opacity:1"
         d="m 121.63116,126.26157 -2.84102,-2.84102"
         id="path44714-26-96" />
      <path
         style="fill:none;stroke:#000000;stroke-width:0.264583px;stroke-linecap:butt;stroke-linejoin:miter;stroke-opacity:1"
         d="m 122.49314,125.39959 -2.84102,-2.84102"
         id="path44714-41-2" />
      <path
         style="fill:none;stroke:#000000;stroke-width:0.264583px;stroke-linecap:butt;stroke-linejoin:miter;stroke-opacity:1"
         d="m 123.35512,124.53761 -2.84102,-2.84102"
         id="path44714-28-1" />
      <path
         style="fill:none;stroke:#000000;stroke-width:0.264583px;stroke-linecap:butt;stroke-linejoin:miter;stroke-opacity:1"
         d="m 124.21709,123.67564 -2.84102,-2.84102"
         id="path44714-8-20" />
      <path
         style="fill:none;stroke:#000000;stroke-width:0.264583px;stroke-linecap:butt;stroke-linejoin:miter;stroke-opacity:1"
         d="m 125.07907,122.81366 -2.84102,-2.84102"
         id="path44714-9-7" />
      <path
         style="fill:none;stroke:#000000;stroke-width:0.264583px;stroke-linecap:butt;stroke-linejoin:miter;stroke-opacity:1"
         d="m 125.94104,121.95169 -2.84102,-2.84102"
         id="path44714-288-31" />
      <path
         style="fill:none;stroke:#000000;stroke-width:0.264583px;stroke-linecap:butt;stroke-linejoin:miter;stroke-opacity:1"
         d="M 126.80302,121.08971 123.962,118.24869"
         id="path44714-86-19" />
      <path
         style="fill:none;stroke:#000000;stroke-width:0.264583px;stroke-linecap:butt;stroke-linejoin:miter;stroke-opacity:1"
         d="m 127.66499,120.22774 -2.84102,-2.84102"
         id="path44714-83-05" />
      <path
         style="fill:none;stroke:#000000;stroke-width:0.264583px;stroke-linecap:butt;stroke-linejoin:miter;stroke-opacity:1"
         d="m 128.52697,119.36576 -2.84102,-2.84102"
         id="path44714-833-6" />
      <path
         style="fill:none;stroke:#000000;stroke-width:0.264583px;stroke-linecap:butt;stroke-linejoin:miter;stroke-opacity:1"
         d="m 129.38894,118.50379 -2.84102,-2.84102"
         id="path44714-3-77" />
      <path
         style="fill:none;stroke:#000000;stroke-width:0.264583px;stroke-linecap:butt;stroke-linejoin:miter;stroke-opacity:1"
         d="m 130.25093,117.6418 -2.84102,-2.84102"
         id="path44714-80-4" />
      <path
         style="fill:none;stroke:#000000;stroke-width:0.264583px;stroke-linecap:butt;stroke-linejoin:miter;stroke-opacity:1"
         d="m 131.1129,116.77983 -2.84102,-2.84102"
         id="path44714-47-06" />
      <path
         style="fill:none;stroke:#000000;stroke-width:0.264583px;stroke-linecap:butt;stroke-linejoin:miter;stroke-opacity:1"
         d="m 131.1129,116.77983 -2.84102,-2.84102"
         id="path44714-6-4" />
      <path
         style="fill:none;stroke:#000000;stroke-width:0.264583px;stroke-linecap:butt;stroke-linejoin:miter;stroke-opacity:1"
         d="m 131.97488,115.91785 -2.84102,-2.84102"
         id="path44714-4-8-7" />
      <path
         style="fill:none;stroke:#000000;stroke-width:0.264583px;stroke-linecap:butt;stroke-linejoin:miter;stroke-opacity:1"
         d="m 132.83685,115.05588 -2.84102,-2.84102"
         id="path44714-2-9-4" />
      <path
         style="fill:none;stroke:#000000;stroke-width:0.264583px;stroke-linecap:butt;stroke-linejoin:miter;stroke-opacity:1"
         d="m 133.69883,114.1939 -2.84102,-2.84102"
         id="path44714-26-0-8" />
      <path
         style="fill:none;stroke:#000000;stroke-width:0.264583px;stroke-linecap:butt;stroke-linejoin:miter;stroke-opacity:1"
         d="m 134.56081,113.33192 -2.84102,-2.84102"
         id="path44714-41-6-5" />
      <path
         style="fill:none;stroke:#000000;stroke-width:0.264583px;stroke-linecap:butt;stroke-linejoin:miter;stroke-opacity:1"
         d="m 135.42279,112.46994 -2.84102,-2.84102"
         id="path44714-28-8-8" />
      <path
         style="fill:none;stroke:#000000;stroke-width:0.264583px;stroke-linecap:butt;stroke-linejoin:miter;stroke-opacity:1"
         d="m 136.28476,111.60797 -2.84102,-2.84102"
         id="path44714-8-7-2" />
      <path
         style="fill:none;stroke:#000000;stroke-width:0.264583px;stroke-linecap:butt;stroke-linejoin:miter;stroke-opacity:1"
         d="m 137.14674,110.74599 -2.84102,-2.84102"
         id="path44714-9-9-6" />
      <path
         style="fill:none;stroke:#000000;stroke-width:0.264583px;stroke-linecap:butt;stroke-linejoin:miter;stroke-opacity:1"
         d="M 138.00871,109.88402 135.16769,107.043"
         id="path44714-288-0-0" />
      <path
         style="fill:none;stroke:#000000;stroke-width:0.264583px;stroke-linecap:butt;stroke-linejoin:miter;stroke-opacity:1"
         d="m 138.87069,109.02204 -2.84102,-2.84102"
         id="path44714-86-3-6" />
      <path
         style="fill:none;stroke:#000000;stroke-width:0.264583px;stroke-linecap:butt;stroke-linejoin:miter;stroke-opacity:1"
         d="m 139.73266,108.16007 -2.84102,-2.84102"
         id="path44714-83-3-6" />
      <path
         style="fill:none;stroke:#000000;stroke-width:0.264583px;stroke-linecap:butt;stroke-linejoin:miter;stroke-opacity:1"
         d="m 140.59464,107.2981 -2.84103,-2.84103"
         id="path44714-833-3-4" />
      <path
         style="fill:none;stroke:#000000;stroke-width:0.264583px;stroke-linecap:butt;stroke-linejoin:miter;stroke-opacity:1"
         d="m 141.45661,106.43612 -2.84102,-2.84102"
         id="path44714-3-7-6" />
      <path
         style="fill:none;stroke:#000000;stroke-width:0.264583px;stroke-linecap:butt;stroke-linejoin:miter;stroke-opacity:1"
         d="m 142.3186,105.57413 -2.84102,-2.84102"
         id="path44714-80-3-2" />
      <path
         style="fill:none;stroke:#000000;stroke-width:0.264583px;stroke-linecap:butt;stroke-linejoin:miter;stroke-opacity:1"
         d="m 143.18057,104.71216 -2.84102,-2.84102"
         id="path44714-47-2-8" />
      <path
         style="fill:none;stroke:#000000;stroke-width:0.264583px;stroke-linecap:butt;stroke-linejoin:miter;stroke-opacity:1"
         d="m 143.18057,104.71216 -2.84102,-2.84102"
         id="path44714-65-9" />
      <path
         style="fill:none;stroke:#000000;stroke-width:0.264583px;stroke-linecap:butt;stroke-linejoin:miter;stroke-opacity:1"
         d="m 144.04254,103.85019 -2.84102,-2.84102"
         id="path44714-4-2-6" />
      <path
         style="fill:none;stroke:#000000;stroke-width:0.264583px;stroke-linecap:butt;stroke-linejoin:miter;stroke-opacity:1"
         d="m 144.90451,102.98822 -2.84102,-2.84102"
         id="path44714-2-6-0" />
      <path
         style="fill:none;stroke:#000000;stroke-width:0.264583px;stroke-linecap:butt;stroke-linejoin:miter;stroke-opacity:1"
         d="m 145.7665,102.12623 -2.84102,-2.841019"
         id="path44714-26-5-7" />
      <path
         style="fill:none;stroke:#000000;stroke-width:0.264583px;stroke-linecap:butt;stroke-linejoin:miter;stroke-opacity:1"
         d="m 146.62848,101.26425 -2.84102,-2.841017"
         id="path44714-41-8-0" />
      <path
         style="fill:none;stroke:#000000;stroke-width:0.264583px;stroke-linecap:butt;stroke-linejoin:miter;stroke-opacity:1"
         d="m 147.49045,100.40228 -2.84102,-2.841024"
         id="path44714-28-7-1" />
      <path
         style="fill:none;stroke:#000000;stroke-width:0.264583px;stroke-linecap:butt;stroke-linejoin:miter;stroke-opacity:1"
         d="m 148.35242,99.540306 -2.84102,-2.84102"
         id="path44714-8-9-0" />
      <path
         style="fill:none;stroke:#000000;stroke-width:0.264583px;stroke-linecap:butt;stroke-linejoin:miter;stroke-opacity:1"
         d="m 149.21441,98.678322 -2.84102,-2.841021"
         id="path44714-9-6-1" />
      <path
         style="fill:none;stroke:#000000;stroke-width:0.264583px;stroke-linecap:butt;stroke-linejoin:miter;stroke-opacity:1"
         d="m 150.07638,97.816352 -2.84102,-2.841021"
         id="path44714-288-04-3" />
      <path
         style="fill:none;stroke:#000000;stroke-width:0.264583px;stroke-linecap:butt;stroke-linejoin:miter;stroke-opacity:1"
         d="m 150.93836,96.954375 -2.84102,-2.841021"
         id="path44714-86-1-7" />
      <path
         style="fill:none;stroke:#000000;stroke-width:0.264583px;stroke-linecap:butt;stroke-linejoin:miter;stroke-opacity:1"
         d="m 151.80033,96.092404 -2.84102,-2.84102"
         id="path44714-83-0-7" />
      <path
         style="fill:none;stroke:#000000;stroke-width:0.264583px;stroke-linecap:butt;stroke-linejoin:miter;stroke-opacity:1"
         d="m 152.6623,95.230427 -2.84102,-2.841021"
         id="path44714-833-4-2" />
      <path
         style="fill:none;stroke:#000000;stroke-width:0.264583px;stroke-linecap:butt;stroke-linejoin:miter;stroke-opacity:1"
         d="m 153.52428,94.36845 -2.84102,-2.841021"
         id="path44714-3-8-6" />
      <path
         style="fill:none;stroke:#000000;stroke-width:0.264583px;stroke-linecap:butt;stroke-linejoin:miter;stroke-opacity:1"
         d="m 154.38627,93.506465 -2.84103,-2.84102"
         id="path44714-80-7-4" />
      <path
         style="fill:none;stroke:#000000;stroke-width:0.264583px;stroke-linecap:butt;stroke-linejoin:miter;stroke-opacity:1"
         d="m 155.24824,92.644495 -2.84103,-2.841021"
         id="path44714-47-0-5" />
      <path
         style="fill:none;stroke:#000000;stroke-width:0.264583px;stroke-linecap:butt;stroke-linejoin:miter;stroke-opacity:1"
         d="m 155.24824,92.644495 -2.84103,-2.841021"
         id="path44714-862-2" />
      <path
         style="fill:none;stroke:#000000;stroke-width:0.264583px;stroke-linecap:butt;stroke-linejoin:miter;stroke-opacity:1"
         d="m 156.11021,91.782518 -2.84102,-2.841021"
         id="path44714-4-4-0" />
      <path
         style="fill:none;stroke:#000000;stroke-width:0.264583px;stroke-linecap:butt;stroke-linejoin:miter;stroke-opacity:1"
         d="m 156.97218,90.920548 -2.84102,-2.841021"
         id="path44714-2-7-2" />
      <path
         style="fill:none;stroke:#000000;stroke-width:0.264583px;stroke-linecap:butt;stroke-linejoin:miter;stroke-opacity:1"
         d="m 157.83417,90.058563 -2.84102,-2.841021"
         id="path44714-26-9-9" />
      <path
         style="fill:none;stroke:#000000;stroke-width:0.264583px;stroke-linecap:butt;stroke-linejoin:miter;stroke-opacity:1"
         d="m 158.69614,89.196586 -2.84102,-2.841021"
         id="path44714-41-3-0" />
      <path
         style="fill:none;stroke:#000000;stroke-width:0.264583px;stroke-linecap:butt;stroke-linejoin:miter;stroke-opacity:1"
         d="M 159.55812,88.334609 156.7171,85.493588"
         id="path44714-28-9-9" />
      <path
         style="fill:none;stroke:#000000;stroke-width:0.264583px;stroke-linecap:butt;stroke-linejoin:miter;stroke-opacity:1"
         d="m 160.42009,87.472638 -2.84102,-2.84102"
         id="path44714-8-2-9" />
      <path
         style="fill:none;stroke:#000000;stroke-width:0.264583px;stroke-linecap:butt;stroke-linejoin:miter;stroke-opacity:1"
         d="m 161.28208,86.610654 -2.84102,-2.841021"
         id="path44714-9-8-4" />
      <path
         style="fill:none;stroke:#000000;stroke-width:0.264583px;stroke-linecap:butt;stroke-linejoin:miter;stroke-opacity:1"
         d="m 162.14405,85.748684 -2.84102,-2.841021"
         id="path44714-288-3-5" />
      <path
         style="fill:none;stroke:#000000;stroke-width:0.264583px;stroke-linecap:butt;stroke-linejoin:miter;stroke-opacity:1"
         d="M 163.00602,84.886706 160.165,82.045686"
         id="path44714-86-0-1" />
      <path
         style="fill:none;stroke:#000000;stroke-width:0.264583px;stroke-linecap:butt;stroke-linejoin:miter;stroke-opacity:1"
         d="m 163.86799,84.024736 -2.84102,-2.841021"
         id="path44714-83-1-0" />
      <path
         style="fill:none;stroke:#000000;stroke-width:0.264583px;stroke-linecap:butt;stroke-linejoin:miter;stroke-opacity:1"
         d="m 167.3159,80.576827 -2.84102,-2.841021"
         id="path44714-25-3" />
      <path
         style="fill:none;stroke:#000000;stroke-width:0.264583px;stroke-linecap:butt;stroke-linejoin:miter;stroke-opacity:1"
         d="m 168.17788,79.71485 -2.84102,-2.841021"
         id="path44714-4-7-7" />
      <path
         style="fill:none;stroke:#000000;stroke-width:0.264583px;stroke-linecap:butt;stroke-linejoin:miter;stroke-opacity:1"
         d="m 169.03985,78.852879 -2.84102,-2.84102"
         id="path44714-2-4-8" />
      <path
         style="fill:none;stroke:#000000;stroke-width:0.264583px;stroke-linecap:butt;stroke-linejoin:miter;stroke-opacity:1"
         d="m 169.90184,77.990895 -2.84102,-2.841021"
         id="path44714-26-99-8" />
      <path
         style="fill:none;stroke:#000000;stroke-width:0.264583px;stroke-linecap:butt;stroke-linejoin:miter;stroke-opacity:1"
         d="m 170.76381,77.128918 -2.84102,-2.841021"
         id="path44714-41-4-6" />
      <path
         style="fill:none;stroke:#000000;stroke-width:0.264583px;stroke-linecap:butt;stroke-linejoin:miter;stroke-opacity:1"
         d="m 171.62579,76.26694 -2.84102,-2.84102"
         id="path44714-28-5-0" />
      <path
         style="fill:none;stroke:#000000;stroke-width:0.264583px;stroke-linecap:butt;stroke-linejoin:miter;stroke-opacity:1"
         d="m 172.48776,75.40497 -2.84102,-2.841021"
         id="path44714-8-93-4" />
      <path
         style="fill:none;stroke:#000000;stroke-width:0.264583px;stroke-linecap:butt;stroke-linejoin:miter;stroke-opacity:1"
         d="m 173.34974,74.542986 -2.84102,-2.841021"
         id="path44714-9-5-6" />
      <path
         style="fill:none;stroke:#000000;stroke-width:0.264583px;stroke-linecap:butt;stroke-linejoin:miter;stroke-opacity:1"
         d="m 174.21172,73.681016 -2.84103,-2.841021"
         id="path44714-288-7-7" />
      <path
         style="fill:none;stroke:#000000;stroke-width:0.264583px;stroke-linecap:butt;stroke-linejoin:miter;stroke-opacity:1"
         d="m 175.07369,72.819038 -2.84102,-2.84102"
         id="path44714-86-08-6" />
      <path
         style="fill:none;stroke:#000000;stroke-width:0.264583px;stroke-linecap:butt;stroke-linejoin:miter;stroke-opacity:1"
         d="m 175.93566,71.957068 -2.84102,-2.841021"
         id="path44714-83-19-0" />
      <path
         style="fill:none;stroke:#000000;stroke-width:0.264583px;stroke-linecap:butt;stroke-linejoin:miter;stroke-opacity:1"
         d="M 176.79764,71.095091 173.95662,68.25407"
         id="path44714-833-9-9" />
      <path
         style="fill:none;stroke:#000000;stroke-width:0.264583px;stroke-linecap:butt;stroke-linejoin:miter;stroke-opacity:1"
         d="m 177.65962,70.233113 -2.84102,-2.84102"
         id="path44714-3-78-7" />
      <path
         style="fill:none;stroke:#000000;stroke-width:0.264583px;stroke-linecap:butt;stroke-linejoin:miter;stroke-opacity:1"
         d="m 178.5216,69.371129 -2.84102,-2.841021"
         id="path44714-80-2-5" />
      <path
         style="fill:none;stroke:#000000;stroke-width:0.264583px;stroke-linecap:butt;stroke-linejoin:miter;stroke-opacity:1"
         d="m 179.38357,68.509159 -2.84102,-2.841021"
         id="path44714-47-53-9" />
      <path
         style="fill:none;stroke:#000000;stroke-width:0.264583px;stroke-linecap:butt;stroke-linejoin:miter;stroke-opacity:1"
         d="m 164.72997,83.162759 -2.84102,-2.841021"
         id="path44714-833-7-7" />
      <path
         style="fill:none;stroke:#000000;stroke-width:0.264583px;stroke-linecap:butt;stroke-linejoin:miter;stroke-opacity:1"
         d="m 165.59195,82.300782 -2.84102,-2.841021"
         id="path44714-3-89-8" />
      <path
         style="fill:none;stroke:#000000;stroke-width:0.264583px;stroke-linecap:butt;stroke-linejoin:miter;stroke-opacity:1"
         d="m 166.45393,81.438797 -2.84102,-2.841021"
         id="path44714-80-1-5" />
      <path
         style="fill:none;stroke:#000000;stroke-width:0.264583px;stroke-linecap:butt;stroke-linejoin:miter;stroke-opacity:1"
         d="m 167.3159,80.576827 -2.84102,-2.841021"
         id="path44714-47-5-3" />
    </g>
    <path
       style="fill:none;stroke:#000000;stroke-width:0.264583px;stroke-linecap:butt;stroke-linejoin:miter;stroke-opacity:1"
       d="M 90.382001,118.54396 184.51669,24.409266"
       id="path46352" />
    <path
       style="fill:none;stroke:#000000;stroke-width:0.264583px;stroke-linecap:butt;stroke-linejoin:miter;stroke-opacity:1"
       d="M 90.465782,157.78976 H 199.62269"
       id="path46354" />
    <path
       style="fill:none;stroke:#000000;stroke-width:0.264583px;stroke-linecap:butt;stroke-linejoin:miter;stroke-opacity:1"
       d="m 169.04576,40.079178 v 78.464782 l 0,39.18157"
       id="path46491" />
    <g
       inkscape:label=""
       transform="translate(-20.275157,69.350393)"
       id="g70869">
      <g
         id="g2664">
        <g
           style="fill:#000000;fill-opacity:1"
           id="g6118">
          <use
             xlink:href="#symbol7087"
             x="91.925003"
             y="81.962997"
             id="use5294"
             width="100%"
             height="100%" />
        </g>
        <g
           style="fill:#000000;fill-opacity:1"
           id="g2612">
          <use
             xlink:href="#symbol2847"
             x="99.489998"
             y="83.457001"
             id="use7062"
             width="100%"
             height="100%" />
        </g>
      </g>
    </g>
    <g
       inkscape:label=""
       transform="translate(-36.5587,51.432835)"
       id="g71420">
      <g
         id="g4160">
        <g
           style="fill:#000000;fill-opacity:1"
           id="g3199">
          <use
             xlink:href="#symbol2445"
             x="91.925003"
             y="81.962997"
             id="use6922"
             width="100%"
             height="100%" />
        </g>
        <g
           style="fill:#000000;fill-opacity:1"
           id="g5626">
          <use
             xlink:href="#symbol5470"
             x="99.489998"
             y="83.457001"
             id="use1716"
             width="100%"
             height="100%" />
        </g>
      </g>
    </g>
    <g
       inkscape:label=""
       transform="translate(-19.298651,89.5417)"
       id="g72524">
      <g
         id="g9523">
        <g
           style="fill:#000000;fill-opacity:1"
           id="g742">
          <use
             xlink:href="#symbol8127"
             x="91.925003"
             y="81.962997"
             id="use2051"
             width="100%"
             height="100%" />
        </g>
        <g
           style="fill:#000000;fill-opacity:1"
           id="g9312">
          <use
             xlink:href="#symbol2472"
             x="99.489998"
             y="83.457001"
             id="use9133"
             width="100%"
             height="100%" />
        </g>
      </g>
    </g>
    <g
       inkscape:label=""
       transform="translate(-42.77338,30.852646)"
       id="g73157">
      <g
         id="g5844">
        <g
           style="fill:#000000;fill-opacity:1"
           id="g2164">
          <use
             xlink:href="#symbol8813"
             x="91.925003"
             y="81.962997"
             id="use9605"
             width="100%"
             height="100%" />
        </g>
        <g
           style="fill:#000000;fill-opacity:1"
           id="g1012">
          <use
             xlink:href="#symbol6805"
             x="96.373001"
             y="83.457001"
             id="use7470"
             width="100%"
             height="100%" />
        </g>
      </g>
    </g>
    <g
       inkscape:label=""
       transform="translate(0.69069611,120.75466)"
       id="g73884">
      <g
         id="g5506">
        <g
           style="fill:#000000;fill-opacity:1"
           id="g2563">
          <use
             xlink:href="#symbol2626"
             x="91.925003"
             y="81.962997"
             id="use8524"
             width="100%"
             height="100%" />
        </g>
        <g
           style="fill:#000000;fill-opacity:1"
           id="g6172">
          <use
             xlink:href="#symbol313"
             x="96.373001"
             y="83.457001"
             id="use2547"
             width="100%"
             height="100%" />
        </g>
      </g>
    </g>
    <g
       inkscape:label=""
       transform="translate(40.055688,96.524304)"
       id="g74572">
      <g
         id="g9073">
        <g
           style="fill:#000000;fill-opacity:1"
           id="g6382">
          <use
             xlink:href="#symbol1410"
             x="91.925003"
             y="81.962997"
             id="use4674"
             width="100%"
             height="100%" />
        </g>
        <g
           style="fill:#000000;fill-opacity:1"
           id="g4411">
          <use
             xlink:href="#symbol375"
             x="96.601997"
             y="83.457001"
             id="use5473"
             width="100%"
             height="100%" />
        </g>
        <g
           style="fill:#000000;fill-opacity:1"
           id="g5947">
          <use
             xlink:href="#symbol1252"
             x="103.839"
             y="81.962997"
             id="use83"
             width="100%"
             height="100%" />
        </g>
        <g
           style="fill:#000000;fill-opacity:1"
           id="g4542">
          <use
             xlink:href="#symbol6050"
             x="115.55"
             y="78.040001"
             id="use7111"
             width="100%"
             height="100%" />
        </g>
        <path
           style="fill:none;stroke:#000000;stroke-width:0.398;stroke-linecap:butt;stroke-linejoin:miter;stroke-miterlimit:10;stroke-opacity:1"
           d="M 7.8125e-4,-6.5625e-4 H 4.910938"
           transform="matrix(1,0,0,-1,115.55,79.472)"
           id="path2338" />
        <g
           style="fill:#000000;fill-opacity:1"
           id="g7230">
          <use
             xlink:href="#symbol8828"
             x="116.019"
             y="85.398003"
             id="use8155"
             width="100%"
             height="100%" />
        </g>
      </g>
    </g>
    <g
       inkscape:label=""
       transform="translate(26.720472,24.031051)"
       id="g75329">
      <g
         id="g886">
        <g
           style="fill:#000000;fill-opacity:1"
           id="g9145">
          <use
             xlink:href="#symbol3343"
             x="91.925003"
             y="81.962997"
             id="use3755"
             width="100%"
             height="100%" />
        </g>
        <g
           style="fill:#000000;fill-opacity:1"
           id="g1001">
          <use
             xlink:href="#symbol712"
             x="96.601997"
             y="83.457001"
             id="use7889"
             width="100%"
             height="100%" />
        </g>
        <g
           style="fill:#000000;fill-opacity:1"
           id="g1486">
          <use
             xlink:href="#symbol5388"
             x="103.839"
             y="81.962997"
             id="use1718"
             width="100%"
             height="100%" />
        </g>
        <g
           style="fill:#000000;fill-opacity:1"
           id="g9191">
          <use
             xlink:href="#symbol6349"
             x="115.55"
             y="78.040001"
             id="use2286"
             width="100%"
             height="100%" />
        </g>
        <path
           style="fill:none;stroke:#000000;stroke-width:0.398;stroke-linecap:butt;stroke-linejoin:miter;stroke-miterlimit:10;stroke-opacity:1"
           d="M 7.8125e-4,-6.5625e-4 H 4.910938"
           transform="matrix(1,0,0,-1,115.55,79.472)"
           id="path5827" />
        <g
           style="fill:#000000;fill-opacity:1"
           id="g8162">
          <use
             xlink:href="#symbol712"
             x="116.019"
             y="85.398003"
             id="use9569"
             width="100%"
             height="100%" />
        </g>
      </g>
    </g>
    <g
       inkscape:label=""
       transform="translate(-47.888871,87.259361)"
       id="g76117">
      <g
         id="g1425">
        <g
           style="fill:#000000;fill-opacity:1"
           id="g5606">
          <use
             xlink:href="#symbol7048"
             x="91.925003"
             y="81.962997"
             id="use8498"
             width="100%"
             height="100%" />
        </g>
      </g>
    </g>
    <g
       inkscape:label=""
       transform="translate(100.6643,0.73270727)"
       id="g76900">
      <g
         id="g1762">
        <g
           style="fill:#000000;fill-opacity:1"
           id="g1315">
          <use
             xlink:href="#symbol944"
             x="91.925003"
             y="81.962997"
             id="use8850"
             width="100%"
             height="100%" />
        </g>
      </g>
    </g>
    <g
       inkscape:label=""
       transform="translate(-63.245403,31.907604)"
       id="g77697">
      <g
         id="g143">
        <g
           style="fill:#000000;fill-opacity:1"
           id="g1499">
          <use
             xlink:href="#symbol5297"
             x="91.925003"
             y="81.962997"
             id="use4274"
             width="100%"
             height="100%" />
        </g>
      </g>
    </g>
    <g
       inkscape:label=""
       transform="translate(-45.006053,124.74092)"
       id="g78514">
      <g
         id="g8825">
        <g
           style="fill:#000000;fill-opacity:1"
           id="g2659">
          <use
             xlink:href="#symbol438"
             x="91.925003"
             y="81.962997"
             id="use2142"
             width="100%"
             height="100%" />
        </g>
        <g
           style="fill:#000000;fill-opacity:1"
           id="g8259">
          <use
             xlink:href="#symbol1885"
             x="96.906998"
             y="81.962997"
             id="use330"
             width="100%"
             height="100%" />
        </g>
      </g>
    </g>
    <g
       inkscape:label=""
       transform="translate(-91.527833,77.833677)"
       id="g79363">
      <g
         id="g9672">
        <g
           style="fill:#000000;fill-opacity:1"
           id="g7045">
          <use
             xlink:href="#symbol7328"
             x="91.925003"
             y="81.962997"
             id="use9556"
             width="100%"
             height="100%" />
        </g>
        <g
           style="fill:#000000;fill-opacity:1"
           id="g5908">
          <use
             xlink:href="#symbol4160"
             x="96.906998"
             y="81.962997"
             id="use4049"
             width="100%"
             height="100%" />
        </g>
      </g>
    </g>
    <g
       inkscape:label=""
       transform="translate(25.529314,46.406623)"
       id="g80242">
      <g
         id="g6287">
        <g
           style="fill:#000000;fill-opacity:1"
           id="g2282">
          <use
             xlink:href="#symbol405"
             x="91.925003"
             y="81.962997"
             id="use560"
             width="100%"
             height="100%" />
        </g>
        <g
           style="fill:#000000;fill-opacity:1"
           id="g5684">
          <use
             xlink:href="#symbol1623"
             x="96.906998"
             y="81.962997"
             id="use3917"
             width="100%"
             height="100%" />
        </g>
        <g
           style="fill:#000000;fill-opacity:1"
           id="g6340">
          <use
             xlink:href="#symbol1529"
             x="101.218"
             y="81.962997"
             id="use472"
             width="100%"
             height="100%" />
        </g>
      </g>
    </g>
  </g>
</svg>
