 <svg version="1.1" style="overflow: hidden; display: block;" width="500" height="350"><defs></defs><g id="two-0" transform="matrix(1 0 0 1 0 0)" opacity="1"><path transform="matrix(1 0 0 1 0 0)" id="two-1" d="M 150 150 L 300 180 " fill="#fff" stroke="#000" stroke-width="1" stroke-opacity="1" fill-opacity="1" visibility="visible" stroke-linecap="butt" stroke-linejoin="miter" stroke-miterlimit="4" stroke-dasharray="0 4 0" stroke-dashoffset="0"></path><path transform="matrix(1 0 0 1 0 0)" id="two-2" d="M 330 30 L 270 330 " fill="#fff" stroke="#000" stroke-width="1" stroke-opacity="1" fill-opacity="1" visibility="visible" stroke-linecap="butt" stroke-linejoin="miter" stroke-miterlimit="4" stroke-dasharray="0 4 0" stroke-dashoffset="0"></path><path transform="matrix(1 0 0 1 0 0)" id="two-3" d="M 271.759276 321.203617 L 288.400282 346.165126 " fill="#fff" stroke="#000" stroke-width="1" stroke-opacity="1" fill-opacity="1" visibility="visible" stroke-linecap="butt" stroke-linejoin="miter" stroke-miterlimit="4"></path><path transform="matrix(1 0 0 1 0 0)" id="two-4" d="M 274.11267 309.436649 L 290.753676 334.398158 " fill="#fff" stroke="#000" stroke-width="1" stroke-opacity="1" fill-opacity="1" visibility="visible" stroke-linecap="butt" stroke-linejoin="miter" stroke-miterlimit="4"></path><path transform="matrix(1 0 0 1 0 0)" id="two-5" d="M 276.466063 297.669681 L 293.107069 322.631189 " fill="#fff" stroke="#000" stroke-width="1" stroke-opacity="1" fill-opacity="1" visibility="visible" stroke-linecap="butt" stroke-linejoin="miter" stroke-miterlimit="4"></path><path transform="matrix(1 0 0 1 0 0)" id="two-6" d="M 278.819457 285.902712 L 295.460463 310.864221 " fill="#fff" stroke="#000" stroke-width="1" stroke-opacity="1" fill-opacity="1" visibility="visible" stroke-linecap="butt" stroke-linejoin="miter" stroke-miterlimit="4"></path><path transform="matrix(1 0 0 1 0 0)" id="two-7" d="M 281.172851 274.135744 L 297.813856 299.097253 " fill="#fff" stroke="#000" stroke-width="1" stroke-opacity="1" fill-opacity="1" visibility="visible" stroke-linecap="butt" stroke-linejoin="miter" stroke-miterlimit="4"></path><path transform="matrix(1 0 0 1 0 0)" id="two-8" d="M 283.526244 262.368776 L 300.16725 287.330285 " fill="#fff" stroke="#000" stroke-width="1" stroke-opacity="1" fill-opacity="1" visibility="visible" stroke-linecap="butt" stroke-linejoin="miter" stroke-miterlimit="4"></path><path transform="matrix(1 0 0 1 0 0)" id="two-9" d="M 285.879638 250.601808 L 302.520644 275.563317 " fill="#fff" stroke="#000" stroke-width="1" stroke-opacity="1" fill-opacity="1" visibility="visible" stroke-linecap="butt" stroke-linejoin="miter" stroke-miterlimit="4"></path><path transform="matrix(1 0 0 1 0 0)" id="two-10" d="M 288.233031 238.83484 L 304.874037 263.796349 " fill="#fff" stroke="#000" stroke-width="1" stroke-opacity="1" fill-opacity="1" visibility="visible" stroke-linecap="butt" stroke-linejoin="miter" stroke-miterlimit="4"></path><path transform="matrix(1 0 0 1 0 0)" id="two-11" d="M 290.586425 227.067872 L 307.227431 252.029381 " fill="#fff" stroke="#000" stroke-width="1" stroke-opacity="1" fill-opacity="1" visibility="visible" stroke-linecap="butt" stroke-linejoin="miter" stroke-miterlimit="4"></path><path transform="matrix(1 0 0 1 0 0)" id="two-12" d="M 292.939819 215.300904 L 309.580825 240.262413 " fill="#fff" stroke="#000" stroke-width="1" stroke-opacity="1" fill-opacity="1" visibility="visible" stroke-linecap="butt" stroke-linejoin="miter" stroke-miterlimit="4"></path><path transform="matrix(1 0 0 1 0 0)" id="two-13" d="M 295.293212 203.533936 L 311.934218 228.495445 " fill="#fff" stroke="#000" stroke-width="1" stroke-opacity="1" fill-opacity="1" visibility="visible" stroke-linecap="butt" stroke-linejoin="miter" stroke-miterlimit="4"></path><path transform="matrix(1 0 0 1 0 0)" id="two-14" d="M 297.646606 191.766968 L 314.287612 216.728476 " fill="#fff" stroke="#000" stroke-width="1" stroke-opacity="1" fill-opacity="1" visibility="visible" stroke-linecap="butt" stroke-linejoin="miter" stroke-miterlimit="4"></path><path transform="matrix(1 0 0 1 0 0)" id="two-15" d="M 300 180 L 316.641005 204.961508 " fill="#fff" stroke="#000" stroke-width="1" stroke-opacity="1" fill-opacity="1" visibility="visible" stroke-linecap="butt" stroke-linejoin="miter" stroke-miterlimit="4"></path><path transform="matrix(1 0 0 1 0 0)" id="two-16" d="M 302.353393 168.233031 L 318.994399 193.19454 " fill="#fff" stroke="#000" stroke-width="1" stroke-opacity="1" fill-opacity="1" visibility="visible" stroke-linecap="butt" stroke-linejoin="miter" stroke-miterlimit="4"></path><path transform="matrix(1 0 0 1 0 0)" id="two-17" d="M 304.706787 156.466063 L 321.347793 181.427572 " fill="#fff" stroke="#000" stroke-width="1" stroke-opacity="1" fill-opacity="1" visibility="visible" stroke-linecap="butt" stroke-linejoin="miter" stroke-miterlimit="4"></path><path transform="matrix(1 0 0 1 0 0)" id="two-18" d="M 307.06018 144.699095 L 323.701186 169.660604 " fill="#fff" stroke="#000" stroke-width="1" stroke-opacity="1" fill-opacity="1" visibility="visible" stroke-linecap="butt" stroke-linejoin="miter" stroke-miterlimit="4"></path><path transform="matrix(1 0 0 1 0 0)" id="two-19" d="M 309.413574 132.932127 L 326.05458 157.893636 " fill="#fff" stroke="#000" stroke-width="1" stroke-opacity="1" fill-opacity="1" visibility="visible" stroke-linecap="butt" stroke-linejoin="miter" stroke-miterlimit="4"></path><path transform="matrix(1 0 0 1 0 0)" id="two-20" d="M 311.766968 121.165159 L 328.407973 146.126668 " fill="#fff" stroke="#000" stroke-width="1" stroke-opacity="1" fill-opacity="1" visibility="visible" stroke-linecap="butt" stroke-linejoin="miter" stroke-miterlimit="4"></path><path transform="matrix(1 0 0 1 0 0)" id="two-21" d="M 314.120361 109.398191 L 330.761367 134.3597 " fill="#fff" stroke="#000" stroke-width="1" stroke-opacity="1" fill-opacity="1" visibility="visible" stroke-linecap="butt" stroke-linejoin="miter" stroke-miterlimit="4"></path><path transform="matrix(1 0 0 1 0 0)" id="two-22" d="M 316.473755 97.631223 L 333.114761 122.592732 " fill="#fff" stroke="#000" stroke-width="1" stroke-opacity="1" fill-opacity="1" visibility="visible" stroke-linecap="butt" stroke-linejoin="miter" stroke-miterlimit="4"></path><path transform="matrix(1 0 0 1 0 0)" id="two-23" d="M 318.827148 85.864255 L 335.468154 110.825763 " fill="#fff" stroke="#000" stroke-width="1" stroke-opacity="1" fill-opacity="1" visibility="visible" stroke-linecap="butt" stroke-linejoin="miter" stroke-miterlimit="4"></path><path transform="matrix(1 0 0 1 0 0)" id="two-24" d="M 321.180542 74.097287 L 337.821548 99.058795 " fill="#fff" stroke="#000" stroke-width="1" stroke-opacity="1" fill-opacity="1" visibility="visible" stroke-linecap="butt" stroke-linejoin="miter" stroke-miterlimit="4"></path><path transform="matrix(1 0 0 1 0 0)" id="two-25" d="M 323.533936 62.330318 L 340.174942 87.291827 " fill="#fff" stroke="#000" stroke-width="1" stroke-opacity="1" fill-opacity="1" visibility="visible" stroke-linecap="butt" stroke-linejoin="miter" stroke-miterlimit="4"></path><path transform="matrix(1 0 0 1 0 0)" id="two-26" d="M 325.887329 50.56335 L 342.528335 75.524859 " fill="#fff" stroke="#000" stroke-width="1" stroke-opacity="1" fill-opacity="1" visibility="visible" stroke-linecap="butt" stroke-linejoin="miter" stroke-miterlimit="4"></path><path transform="matrix(1 0 0 1 0 0)" id="two-27" d="M 328.240723 38.796382 L 344.881729 63.757891 " fill="#fff" stroke="#000" stroke-width="1" stroke-opacity="1" fill-opacity="1" visibility="visible" stroke-linecap="butt" stroke-linejoin="miter" stroke-miterlimit="4"></path><path transform="matrix(1 0 0 1 0 0)" id="two-28" d="M 330.594117 27.029414 L 347.235122 51.990923 " fill="#fff" stroke="#000" stroke-width="1" stroke-opacity="1" fill-opacity="1" visibility="visible" stroke-linecap="butt" stroke-linejoin="miter" stroke-miterlimit="4"></path><text transform="matrix(1 0 0 1 140 145)" id="two-29" font-family="Libertine, Linux Libertine 0" font-size="18" line-height="17" text-anchor="middle" dominant-baseline="middle" font-style="normal" font-weight="500" text-decoration="none" direction="ltr" fill="#000" stroke="none" stroke-width="1" opacity="1" visibility="visible">p</text><path transform="matrix(1 0 0 1 150 150)" id="two-30" d="M 2 0 C 2 1.104569 1.104569 2 0 2 C -1.10457 2 -2 1.104569 -2 0 C -2 -1.10457 -1.10457 -2 -0.000001 -2 C 1.104569 -2.000001 2 -1.10457 2 0 Z " fill="none" stroke="rgb(32,32,32)" stroke-width="1" stroke-opacity="1" fill-opacity="1" visibility="visible" stroke-linecap="butt" stroke-linejoin="miter" stroke-miterlimit="4"></path><text transform="matrix(1 0 0 1 290 165)" id="two-31" font-family="Libertine, Linux Libertine 0" font-size="18" line-height="17" text-anchor="middle" dominant-baseline="middle" font-style="normal" font-weight="500" text-decoration="none" direction="ltr" fill="#000" stroke="none" stroke-width="1" opacity="1" visibility="visible">q</text><path transform="matrix(1 0 0 1 300 180)" id="two-32" d="M 2 0 C 2 1.104569 1.104569 2 0 2 C -1.10457 2 -2 1.104569 -2 0 C -2 -1.10457 -1.10457 -2 -0.000001 -2 C 1.104569 -2.000001 2 -1.10457 2 0 Z " fill="none" stroke="rgb(32,32,32)" stroke-width="1" stroke-opacity="1" fill-opacity="1" visibility="visible" stroke-linecap="butt" stroke-linejoin="miter" stroke-miterlimit="4"></path><text transform="matrix(1 0 0 1 360 135)" id="two-33" font-family="Libertine, Linux Libertine 0" font-size="18" line-height="17" text-anchor="middle" dominant-baseline="middle" font-style="normal" font-weight="500" text-decoration="none" direction="ltr" fill="#000" stroke="none" stroke-width="1" opacity="1" visibility="visible">v</text><path transform="matrix(1 0 0 1 350 130)" id="two-34" d="M 2 0 C 2 1.104569 1.104569 2 0 2 C -1.10457 2 -2 1.104569 -2 0 C -2 -1.10457 -1.10457 -2 -0.000001 -2 C 1.104569 -2.000001 2 -1.10457 2 0 Z " fill="none" stroke="rgb(32,32,32)" stroke-width="1" stroke-opacity="1" fill-opacity="1" visibility="visible" stroke-linecap="butt" stroke-linejoin="miter" stroke-miterlimit="4"></path></g></svg>