<?xml version="1.0" encoding="UTF-8" standalone="no"?>
<svg
   version="1.1"
   style="display:block;overflow:hidden"
   width="745.5"
   height="146.5"
   id="svg7"
   sodipodi:docname="fig.svg"
   inkscape:version="1.1.2 (0a00cf5339, 2022-02-04)"
   xmlns:inkscape="http://www.inkscape.org/namespaces/inkscape"
   xmlns:sodipodi="http://sodipodi.sourceforge.net/DTD/sodipodi-0.dtd"
   xmlns="http://www.w3.org/2000/svg"
   xmlns:svg="http://www.w3.org/2000/svg">
  <sodipodi:namedview
     id="namedview9"
     pagecolor="#ffffff"
     bordercolor="#666666"
     borderopacity="1.0"
     inkscape:pageshadow="2"
     inkscape:pageopacity="0.0"
     inkscape:pagecheckerboard="0"
     showgrid="false"
     fit-margin-top="0"
     fit-margin-left="0"
     fit-margin-right="0"
     fit-margin-bottom="0"
     inkscape:zoom="0.89875"
     inkscape:cx="404.45063"
     inkscape:cy="354.38108"
     inkscape:window-width="1920"
     inkscape:window-height="1178"
     inkscape:window-x="1920"
     inkscape:window-y="0"
     inkscape:window-maximized="1"
     inkscape:current-layer="svg7" />
  <defs
     id="defs2" />
  <g
     id="two-0"
     opacity="1"
     transform="translate(-45.75,-45.75)">
    <path
       transform="translate(419.5,120.5)"
       id="two-1"
       d="m -371.25,-63.75 v -7.5 h 11.25 11.25 V -60 -48.75 h -11.25 -3.75 v 3.75 3.75 h 3.75 11.25 3.75 11.25 3.75 3.75 V -45 -48.75 H -330 -341.25 V -60 -71.25 h 11.25 11.25 3.75 11.25 v 11.25 3.75 h 3.75 3.75 V -60 -71.25 h 11.25 11.25 V -60 -48.75 -45 -33.75 -30 -18.75 H -285 -296.25 V -30 -33.75 h -3.75 -3.75 v 3.75 11.25 3.75 3.75 h 3.75 11.25 3.75 11.25 V 0 11.25 H -285 -296.25 -300 -311.25 -315 -326.25 -330 -341.25 V 0 -11.25 h 11.25 3.75 V -15 -18.75 h -3.75 -11.25 -3.75 -11.25 -3.75 -3.75 v 3.75 3.75 h 3.75 11.25 V 0 11.25 H -360 -363.75 V 15 18.75 h 3.75 11.25 V 30 41.25 H -360 -363.75 V 45 56.25 60 63.75 h 3.75 3.75 V 60 48.75 h 11.25 11.25 V 60 63.75 h 3.75 3.75 V 60 48.75 45 41.25 H -330 -341.25 V 30 18.75 h 11.25 11.25 3.75 11.25 3.75 11.25 V 30 41.25 H -300 -303.75 V 45 56.25 60 63.75 h 3.75 3.75 V 60 48.75 h 11.25 11.25 V 60 63.75 h 3.75 3.75 V 60 48.75 45 41.25 H -270 -281.25 V 30 18.75 h 11.25 11.25 3.75 11.25 3.75 11.25 3.75 11.25 V 30 41.25 H -225 -236.25 -240 -243.75 V 45 56.25 60 63.75 h 3.75 3.75 V 60 48.75 h 11.25 11.25 V 60 63.75 h 3.75 3.75 V 60 48.75 h 11.25 11.25 V 60 63.75 h 3.75 3.75 V 60 48.75 45 41.25 H -180 -191.25 -195 -206.25 V 30 18.75 h 11.25 11.25 3.75 3.75 V 15 11.25 H -180 -191.25 V 0 -11.25 h 11.25 3.75 V -15 -18.75 h -3.75 -11.25 -3.75 -11.25 -3.75 -3.75 v 3.75 3.75 h 3.75 11.25 V 0 11.25 H -210 -221.25 -225 -236.25 V 0 -3.75 h -3.75 -3.75 V 0 11.25 H -255 -266.25 V 0 -11.25 -15 -26.25 -30 -41.25 h 11.25 11.25 v 11.25 3.75 h 3.75 3.75 V -30 -41.25 -45 -48.75 H -240 -251.25 -255 -266.25 V -60 -71.25 h 11.25 11.25 3.75 11.25 3.75 11.25 3.75 11.25 V -60 -48.75 h -11.25 -3.75 v 3.75 3.75 h 3.75 11.25 3.75 11.25 3.75 3.75 V -45 -48.75 H -180 -191.25 V -60 -71.25 h 11.25 11.25 3.75 11.25 3.75 11.25 V -60 -48.75 h -11.25 -3.75 v 3.75 3.75 h 3.75 11.25 3.75 11.25 3.75 3.75 V -45 -48.75 H -120 -131.25 V -60 -71.25 h 11.25 11.25 3.75 11.25 3.75 11.25 V -60 -48.75 H -90 -93.75 v 3.75 3.75 H -90 -78.75 V -30 -18.75 H -90 -93.75 v 3.75 3.75 H -90 -78.75 V 0 11.25 H -90 -101.25 -105 -116.25 -120 -131.25 V 0 -11.25 h 11.25 3.75 V -15 -18.75 h -3.75 -11.25 -3.75 -11.25 -3.75 -3.75 v 3.75 3.75 h 3.75 11.25 V 0 11.25 H -150 -153.75 V 15 18.75 h 3.75 11.25 3.75 11.25 V 30 41.25 H -135 -146.25 -150 -153.75 V 45 56.25 60 63.75 h 3.75 3.75 V 60 48.75 h 11.25 11.25 V 60 63.75 h 3.75 3.75 V 60 48.75 H -105 -93.75 V 60 63.75 h 3.75 3.75 V 60 48.75 45 41.25 H -90 -101.25 -105 -116.25 V 30 18.75 H -105 -93.75 -90 -78.75 -75 -63.75 -60 -48.75 -45 -33.75 V 30 41.25 H -45 -56.25 -60 -63.75 V 45 56.25 60 63.75 h 3.75 3.75 V 60 48.75 H -45 -33.75 V 60 63.75 h 3.75 3.75 V 60 48.75 H -15 -3.75 V 60 63.75 H 0 3.75 V 60 48.75 45 41.25 H 0 -11.25 -15 -26.25 V 30 18.75 H -15 -3.75 0 3.75 V 15 11.25 H 0 -11.25 V 0 -11.25 H 0 3.75 V -15 -18.75 H 0 -11.25 -15 -26.25 -30 -33.75 v 3.75 3.75 H -30 -18.75 V 0 11.25 H -30 -41.25 -45 -56.25 -60 -71.25 V 0 -11.25 H -60 -56.25 V -15 -18.75 H -60 -71.25 V -30 -41.25 H -60 -56.25 V -45 -48.75 H -60 -71.25 V -60 -71.25 H -60 -48.75 -45 -33.75 -30 -18.75 V -60 -48.75 H -30 -33.75 v 3.75 3.75 H -30 -18.75 -15 -3.75 0 3.75 V -45 -48.75 H 0 -11.25 V -60 -71.25 H 0 11.25 15 26.25 30 41.25 V -60 -48.75 H 30 26.25 v 3.75 3.75 H 30 41.25 45 56.25 60 63.75 V -45 -48.75 H 60 48.75 V -60 -71.25 H 60 71.25 75 86.25 90 101.25 V -60 -48.75 H 90 86.25 v 3.75 3.75 H 90 101.25 V -30 -18.75 H 90 86.25 v 3.75 3.75 H 90 101.25 V 0 11.25 H 90 78.75 75 63.75 60 48.75 V 0 -11.25 H 60 63.75 V -15 -18.75 H 60 48.75 45 33.75 30 26.25 v 3.75 3.75 H 30 41.25 V 0 11.25 H 30 26.25 V 15 18.75 H 30 41.25 45 56.25 V 30 41.25 H 45 33.75 30 26.25 V 45 56.25 60 63.75 H 30 33.75 V 60 48.75 H 45 56.25 V 60 63.75 H 60 63.75 V 60 48.75 H 75 86.25 V 60 63.75 H 90 93.75 V 60 48.75 45 41.25 H 90 78.75 75 63.75 V 30 18.75 H 75 86.25 90 101.25 105 116.25 120 131.25 135 146.25 V 30 41.25 H 135 123.75 120 116.25 V 45 56.25 60 63.75 h 3.75 3.75 V 60 48.75 H 135 146.25 V 60 63.75 h 3.75 3.75 V 60 48.75 H 165 176.25 V 60 63.75 h 3.75 3.75 V 60 48.75 45 41.25 H 180 168.75 165 153.75 V 30 18.75 H 165 176.25 180 183.75 V 15 11.25 H 180 168.75 V 0 -11.25 H 180 183.75 V -15 -18.75 H 180 168.75 165 153.75 150 146.25 v 3.75 3.75 H 150 161.25 V 0 11.25 H 150 138.75 135 123.75 120 108.75 V 0 -11.25 H 120 123.75 V -15 -18.75 H 120 108.75 V -30 -41.25 H 120 123.75 V -45 -48.75 H 120 108.75 V -60 -71.25 H 120 131.25 135 146.25 150 161.25 V -60 -48.75 H 150 146.25 v 3.75 3.75 h 3.75 11.25 3.75 11.25 3.75 3.75 V -45 -48.75 H 180 168.75 V -60 -71.25 H 180 191.25 195 206.25 210 221.25 V -60 -48.75 H 210 206.25 v 3.75 3.75 h 3.75 11.25 3.75 11.25 3.75 3.75 V -45 -48.75 H 240 228.75 V -60 -71.25 H 240 251.25 255 266.25 270 281.25 V -60 -48.75 H 270 266.25 v 3.75 3.75 H 270 281.25 V -30 -18.75 H 270 266.25 v 3.75 3.75 H 270 281.25 V 0 11.25 H 270 258.75 255 243.75 240 228.75 V 0 -11.25 H 240 243.75 V -15 -18.75 H 240 228.75 225 213.75 210 206.25 v 3.75 3.75 H 210 221.25 V 0 11.25 H 210 206.25 V 15 18.75 H 210 221.25 225 236.25 V 30 41.25 H 225 213.75 210 206.25 V 45 56.25 60 63.75 h 3.75 3.75 V 60 48.75 H 225 236.25 V 60 63.75 h 3.75 3.75 V 60 48.75 H 255 266.25 V 60 63.75 h 3.75 3.75 V 60 48.75 45 41.25 H 270 258.75 255 243.75 V 30 18.75 H 255 266.25 270 281.25 285 296.25 300 311.25 315 326.25 V 30 41.25 H 315 303.75 300 296.25 V 45 56.25 60 63.75 h 3.75 3.75 V 60 48.75 H 315 326.25 V 60 63.75 h 3.75 3.75 V 60 48.75 H 345 356.25 V 60 63.75 h 3.75 3.75 V 60 48.75 45 41.25 H 360 348.75 345 333.75 V 30 18.75 H 345 356.25 360 363.75 V 15 11.25 H 360 348.75 V 0 -11.25 H 360 363.75 V -15 -18.75 H 360 348.75 345 333.75 330 326.25 v 3.75 3.75 H 330 341.25 V 0 11.25 H 330 318.75 315 303.75 300 288.75 V 0 -11.25 H 300 303.75 V -15 -18.75 H 300 288.75 V -30 -41.25 H 300 303.75 V -45 -48.75 H 300 288.75 V -60 -71.25 H 300 311.25 315 326.25 330 341.25 V -60 -48.75 H 330 326.25 v 3.75 3.75 h 3.75 11.25 3.75 11.25 3.75 3.75 V -45 -48.75 H 360 348.75 V -60 -71.25 H 360 371.25 v 7.5 H 360 356.25 v 3.75 3.75 H 360 371.25 V -45 -33.75 H 360 348.75 345 333.75 330 318.75 V -45 -56.25 H 330 333.75 V -60 -63.75 H 330 318.75 315 303.75 300 296.25 v 3.75 3.75 H 300 311.25 V -45 -33.75 H 300 296.25 v 3.75 3.75 H 300 311.25 V -15 -3.75 H 300 296.25 V 0 3.75 h 3.75 11.25 3.75 11.25 3.75 3.75 V 0 -3.75 H 330 318.75 V -15 -26.25 H 330 341.25 345 356.25 360 371.25 V -15 -3.75 H 360 356.25 V 0 3.75 H 360 371.25 V 15 26.25 H 360 348.75 345 341.25 V 30 33.75 H 345 356.25 360 371.25 V 45 56.25 60 71.25 H 360 348.75 V 60 56.25 H 345 341.25 V 60 71.25 H 330 318.75 V 60 56.25 H 315 311.25 V 60 71.25 H 300 288.75 V 60 48.75 45 33.75 H 300 311.25 315 318.75 V 30 26.25 H 315 303.75 300 288.75 285 273.75 270 258.75 255 251.25 V 30 33.75 H 255 266.25 270 281.25 V 45 56.25 60 71.25 H 270 258.75 V 60 56.25 H 255 251.25 V 60 71.25 H 240 228.75 V 60 56.25 H 225 221.25 V 60 71.25 H 210 198.75 V 60 48.75 45 33.75 H 210 221.25 225 228.75 V 30 26.25 H 225 213.75 210 198.75 V 15 3.75 H 210 213.75 V 0 -3.75 H 210 198.75 V -15 -26.25 H 210 221.25 225 236.25 240 251.25 V -15 -3.75 H 240 236.25 V 0 3.75 h 3.75 11.25 3.75 11.25 3.75 3.75 V 0 -3.75 H 270 258.75 V -15 -26.25 H 270 273.75 V -30 -33.75 H 270 258.75 V -45 -56.25 H 270 273.75 V -60 -63.75 H 270 258.75 255 243.75 240 236.25 v 3.75 3.75 H 240 251.25 V -45 -33.75 H 240 228.75 225 213.75 210 198.75 V -45 -56.25 H 210 213.75 V -60 -63.75 H 210 198.75 195 183.75 180 176.25 v 3.75 3.75 H 180 191.25 V -45 -33.75 H 180 168.75 165 153.75 150 138.75 V -45 -56.25 H 150 153.75 V -60 -63.75 H 150 138.75 135 123.75 120 116.25 v 3.75 3.75 H 120 131.25 V -45 -33.75 H 120 116.25 v 3.75 3.75 H 120 131.25 V -15 -3.75 H 120 116.25 V 0 3.75 h 3.75 11.25 3.75 11.25 3.75 3.75 V 0 -3.75 H 150 138.75 V -15 -26.25 H 150 161.25 165 176.25 180 191.25 V -15 -3.75 H 180 176.25 V 0 3.75 H 180 191.25 V 15 26.25 H 180 168.75 165 161.25 V 30 33.75 H 165 176.25 180 191.25 V 45 56.25 60 71.25 H 180 168.75 V 60 56.25 H 165 161.25 V 60 71.25 H 150 138.75 V 60 56.25 H 135 131.25 V 60 71.25 H 120 108.75 V 60 48.75 45 33.75 H 120 131.25 135 138.75 V 30 26.25 H 135 123.75 120 108.75 105 93.75 90 78.75 75 71.25 V 30 33.75 H 75 86.25 90 101.25 V 45 56.25 60 71.25 H 90 78.75 V 60 56.25 H 75 71.25 V 60 71.25 H 60 48.75 V 60 56.25 H 45 41.25 V 60 71.25 H 30 18.75 V 60 48.75 45 33.75 H 30 41.25 45 48.75 V 30 26.25 H 45 33.75 30 18.75 V 15 3.75 H 30 33.75 V 0 -3.75 H 30 18.75 V -15 -26.25 H 30 41.25 45 56.25 60 71.25 V -15 -3.75 H 60 56.25 V 0 3.75 H 60 71.25 75 86.25 90 93.75 V 0 -3.75 H 90 78.75 V -15 -26.25 H 90 93.75 V -30 -33.75 H 90 78.75 V -45 -56.25 H 90 93.75 V -60 -63.75 H 90 78.75 75 63.75 60 56.25 v 3.75 3.75 H 60 71.25 V -45 -33.75 H 60 48.75 45 33.75 30 18.75 V -45 -56.25 H 30 33.75 V -60 -63.75 H 30 18.75 15 3.75 0 -3.75 v 3.75 3.75 H 0 11.25 V -45 -33.75 H 0 -11.25 -15 -26.25 -30 -41.25 V -45 -56.25 H -30 -26.25 V -60 -63.75 H -30 -41.25 -45 -56.25 -60 -63.75 v 3.75 3.75 H -60 -48.75 V -45 -33.75 H -60 -63.75 v 3.75 3.75 H -60 -48.75 V -15 -3.75 H -60 -63.75 V 0 3.75 h 3.75 11.25 3.75 11.25 3.75 3.75 V 0 -3.75 H -30 -41.25 V -15 -26.25 H -30 -18.75 -15 -3.75 0 11.25 V -15 -3.75 H 0 -3.75 V 0 3.75 H 0 11.25 V 15 26.25 H 0 -11.25 -15 -18.75 V 30 33.75 H -15 -3.75 0 11.25 V 45 56.25 60 71.25 H 0 -11.25 V 60 56.25 H -15 -18.75 V 60 71.25 H -30 -41.25 V 60 56.25 H -45 -48.75 V 60 71.25 H -60 -71.25 V 60 48.75 45 33.75 H -60 -48.75 -45 -41.25 V 30 26.25 H -45 -56.25 -60 -71.25 -75 -86.25 -90 -101.25 -105 -108.75 V 30 33.75 h 3.75 11.25 3.75 11.25 V 45 56.25 60 71.25 H -90 -101.25 V 60 56.25 h -3.75 -3.75 V 60 71.25 H -120 -131.25 V 60 56.25 h -3.75 -3.75 V 60 71.25 H -150 -161.25 V 60 48.75 45 33.75 h 11.25 11.25 3.75 3.75 V 30 26.25 H -135 -146.25 -150 -161.25 V 15 3.75 h 11.25 3.75 V 0 -3.75 H -150 -161.25 V -15 -26.25 h 11.25 11.25 3.75 11.25 3.75 11.25 V -15 -3.75 H -120 -123.75 V 0 3.75 h 3.75 11.25 3.75 11.25 3.75 3.75 V 0 -3.75 H -90 -101.25 V -15 -26.25 H -90 -86.25 V -30 -33.75 H -90 -101.25 V -45 -56.25 H -90 -86.25 V -60 -63.75 h -3.75 -11.25 -3.75 -11.25 -3.75 -3.75 v 3.75 3.75 h 3.75 11.25 V -45 -33.75 H -120 -131.25 -135 -146.25 -150 -161.25 V -45 -56.25 h 11.25 3.75 V -60 -63.75 h -3.75 -11.25 -3.75 -11.25 -3.75 -3.75 v 3.75 3.75 h 3.75 11.25 V -45 -33.75 H -180 -191.25 -195 -206.25 -210 -221.25 V -45 -56.25 h 11.25 3.75 V -60 -63.75 h -3.75 -11.25 -3.75 -11.25 -3.75 -11.25 -3.75 -3.75 v 3.75 3.75 h 3.75 11.25 3.75 11.25 V -45 -33.75 -30 -18.75 H -240 -251.25 V -30 -33.75 h -3.75 -3.75 V -30 -18.75 -15 -3.75 0 3.75 h 3.75 3.75 V 0 -11.25 h 11.25 11.25 V 0 3.75 h 3.75 11.25 3.75 3.75 V 0 -3.75 H -210 -221.25 V -15 -26.25 h 11.25 11.25 3.75 11.25 3.75 11.25 V -15 -3.75 H -180 -183.75 V 0 3.75 h 3.75 11.25 V 15 26.25 H -180 -191.25 -195 -198.75 V 30 33.75 h 3.75 11.25 3.75 11.25 V 45 56.25 60 71.25 H -180 -191.25 V 60 56.25 h -3.75 -3.75 V 60 71.25 H -210 -221.25 V 60 56.25 h -3.75 -3.75 V 60 71.25 H -240 -251.25 V 60 48.75 45 33.75 h 11.25 11.25 3.75 3.75 V 30 26.25 h -3.75 -11.25 -3.75 -11.25 -3.75 -11.25 -3.75 -3.75 V 30 33.75 h 3.75 11.25 V 45 56.25 60 71.25 H -270 -281.25 V 60 56.25 h -3.75 -3.75 V 60 71.25 H -300 -311.25 V 60 48.75 45 33.75 h 11.25 3.75 V 30 26.25 h -3.75 -11.25 -3.75 -11.25 -3.75 -3.75 V 30 33.75 h 3.75 11.25 V 45 56.25 60 71.25 H -330 -341.25 V 60 56.25 h -3.75 -3.75 V 60 71.25 H -360 -371.25 V 60 48.75 45 33.75 h 11.25 3.75 V 30 26.25 H -360 -371.25 V 15 3.75 h 11.25 3.75 V 0 -3.75 H -360 -371.25 V -15 -26.25 h 11.25 11.25 3.75 11.25 3.75 11.25 V -15 -3.75 H -330 -333.75 V 0 3.75 h 3.75 11.25 3.75 11.25 3.75 11.25 3.75 3.75 V 0 -3.75 H -285 -296.25 -300 -311.25 V -15 -26.25 -30 -41.25 h 11.25 11.25 v 11.25 3.75 h 3.75 3.75 V -30 -41.25 -45 -56.25 -60 -63.75 h -3.75 -3.75 V -60 -48.75 H -300 -311.25 V -60 -63.75 h -3.75 -11.25 -3.75 -3.75 v 3.75 3.75 h 3.75 11.25 V -45 -33.75 H -330 -341.25 -345 -356.25 -360 -371.25 V -45 -56.25 h 11.25 3.75 V -60 -63.75 H -360 Z"
       fill="#c8c8d2"
       stroke="#000000"
       stroke-width="1"
       stroke-opacity="1"
       fill-opacity="1"
       visibility="visible"
       stroke-linecap="butt"
       stroke-linejoin="miter"
       stroke-miterlimit="4" />
    <path
       transform="translate(417.5,117.5)"
       id="two-2"
       d="m -371.25,-63.75 v -7.5 h 11.25 11.25 V -60 -48.75 h -11.25 -3.75 v 3.75 3.75 h 3.75 11.25 3.75 11.25 3.75 3.75 V -45 -48.75 H -330 -341.25 V -60 -71.25 h 11.25 11.25 3.75 11.25 v 11.25 3.75 h 3.75 3.75 V -60 -71.25 h 11.25 11.25 V -60 -48.75 -45 -33.75 -30 -18.75 H -285 -296.25 V -30 -33.75 h -3.75 -3.75 v 3.75 11.25 3.75 3.75 h 3.75 11.25 3.75 11.25 V 0 11.25 H -285 -296.25 -300 -311.25 -315 -326.25 -330 -341.25 V 0 -11.25 h 11.25 3.75 V -15 -18.75 h -3.75 -11.25 -3.75 -11.25 -3.75 -3.75 v 3.75 3.75 h 3.75 11.25 V 0 11.25 H -360 -363.75 V 15 18.75 h 3.75 11.25 V 30 41.25 H -360 -363.75 V 45 56.25 60 63.75 h 3.75 3.75 V 60 48.75 h 11.25 11.25 V 60 63.75 h 3.75 3.75 V 60 48.75 45 41.25 H -330 -341.25 V 30 18.75 h 11.25 11.25 3.75 11.25 3.75 11.25 V 30 41.25 H -300 -303.75 V 45 56.25 60 63.75 h 3.75 3.75 V 60 48.75 h 11.25 11.25 V 60 63.75 h 3.75 3.75 V 60 48.75 45 41.25 H -270 -281.25 V 30 18.75 h 11.25 11.25 3.75 11.25 3.75 11.25 3.75 11.25 V 30 41.25 H -225 -236.25 -240 -243.75 V 45 56.25 60 63.75 h 3.75 3.75 V 60 48.75 h 11.25 11.25 V 60 63.75 h 3.75 3.75 V 60 48.75 h 11.25 11.25 V 60 63.75 h 3.75 3.75 V 60 48.75 45 41.25 H -180 -191.25 -195 -206.25 V 30 18.75 h 11.25 11.25 3.75 3.75 V 15 11.25 H -180 -191.25 V 0 -11.25 h 11.25 3.75 V -15 -18.75 h -3.75 -11.25 -3.75 -11.25 -3.75 -3.75 v 3.75 3.75 h 3.75 11.25 V 0 11.25 H -210 -221.25 -225 -236.25 V 0 -3.75 h -3.75 -3.75 V 0 11.25 H -255 -266.25 V 0 -11.25 -15 -26.25 -30 -41.25 h 11.25 11.25 v 11.25 3.75 h 3.75 3.75 V -30 -41.25 -45 -48.75 H -240 -251.25 -255 -266.25 V -60 -71.25 h 11.25 11.25 3.75 11.25 3.75 11.25 3.75 11.25 V -60 -48.75 h -11.25 -3.75 v 3.75 3.75 h 3.75 11.25 3.75 11.25 3.75 3.75 V -45 -48.75 H -180 -191.25 V -60 -71.25 h 11.25 11.25 3.75 11.25 3.75 11.25 V -60 -48.75 h -11.25 -3.75 v 3.75 3.75 h 3.75 11.25 3.75 11.25 3.75 3.75 V -45 -48.75 H -120 -131.25 V -60 -71.25 h 11.25 11.25 3.75 11.25 3.75 11.25 V -60 -48.75 H -90 -93.75 v 3.75 3.75 H -90 -78.75 V -30 -18.75 H -90 -93.75 v 3.75 3.75 H -90 -78.75 V 0 11.25 H -90 -101.25 -105 -116.25 -120 -131.25 V 0 -11.25 h 11.25 3.75 V -15 -18.75 h -3.75 -11.25 -3.75 -11.25 -3.75 -3.75 v 3.75 3.75 h 3.75 11.25 V 0 11.25 H -150 -153.75 V 15 18.75 h 3.75 11.25 3.75 11.25 V 30 41.25 H -135 -146.25 -150 -153.75 V 45 56.25 60 63.75 h 3.75 3.75 V 60 48.75 h 11.25 11.25 V 60 63.75 h 3.75 3.75 V 60 48.75 H -105 -93.75 V 60 63.75 h 3.75 3.75 V 60 48.75 45 41.25 H -90 -101.25 -105 -116.25 V 30 18.75 H -105 -93.75 -90 -78.75 -75 -63.75 -60 -48.75 -45 -33.75 V 30 41.25 H -45 -56.25 -60 -63.75 V 45 56.25 60 63.75 h 3.75 3.75 V 60 48.75 H -45 -33.75 V 60 63.75 h 3.75 3.75 V 60 48.75 H -15 -3.75 V 60 63.75 H 0 3.75 V 60 48.75 45 41.25 H 0 -11.25 -15 -26.25 V 30 18.75 H -15 -3.75 0 3.75 V 15 11.25 H 0 -11.25 V 0 -11.25 H 0 3.75 V -15 -18.75 H 0 -11.25 -15 -26.25 -30 -33.75 v 3.75 3.75 H -30 -18.75 V 0 11.25 H -30 -41.25 -45 -56.25 -60 -71.25 V 0 -11.25 H -60 -56.25 V -15 -18.75 H -60 -71.25 V -30 -41.25 H -60 -56.25 V -45 -48.75 H -60 -71.25 V -60 -71.25 H -60 -48.75 -45 -33.75 -30 -18.75 V -60 -48.75 H -30 -33.75 v 3.75 3.75 H -30 -18.75 -15 -3.75 0 3.75 V -45 -48.75 H 0 -11.25 V -60 -71.25 H 0 11.25 15 26.25 30 41.25 V -60 -48.75 H 30 26.25 v 3.75 3.75 H 30 41.25 45 56.25 60 63.75 V -45 -48.75 H 60 48.75 V -60 -71.25 H 60 71.25 75 86.25 90 101.25 V -60 -48.75 H 90 86.25 v 3.75 3.75 H 90 101.25 V -30 -18.75 H 90 86.25 v 3.75 3.75 H 90 101.25 V 0 11.25 H 90 78.75 75 63.75 60 48.75 V 0 -11.25 H 60 63.75 V -15 -18.75 H 60 48.75 45 33.75 30 26.25 v 3.75 3.75 H 30 41.25 V 0 11.25 H 30 26.25 V 15 18.75 H 30 41.25 45 56.25 V 30 41.25 H 45 33.75 30 26.25 V 45 56.25 60 63.75 H 30 33.75 V 60 48.75 H 45 56.25 V 60 63.75 H 60 63.75 V 60 48.75 H 75 86.25 V 60 63.75 H 90 93.75 V 60 48.75 45 41.25 H 90 78.75 75 63.75 V 30 18.75 H 75 86.25 90 101.25 105 116.25 120 131.25 135 146.25 V 30 41.25 H 135 123.75 120 116.25 V 45 56.25 60 63.75 h 3.75 3.75 V 60 48.75 H 135 146.25 V 60 63.75 h 3.75 3.75 V 60 48.75 H 165 176.25 V 60 63.75 h 3.75 3.75 V 60 48.75 45 41.25 H 180 168.75 165 153.75 V 30 18.75 H 165 176.25 180 183.75 V 15 11.25 H 180 168.75 V 0 -11.25 H 180 183.75 V -15 -18.75 H 180 168.75 165 153.75 150 146.25 v 3.75 3.75 H 150 161.25 V 0 11.25 H 150 138.75 135 123.75 120 108.75 V 0 -11.25 H 120 123.75 V -15 -18.75 H 120 108.75 V -30 -41.25 H 120 123.75 V -45 -48.75 H 120 108.75 V -60 -71.25 H 120 131.25 135 146.25 150 161.25 V -60 -48.75 H 150 146.25 v 3.75 3.75 h 3.75 11.25 3.75 11.25 3.75 3.75 V -45 -48.75 H 180 168.75 V -60 -71.25 H 180 191.25 195 206.25 210 221.25 V -60 -48.75 H 210 206.25 v 3.75 3.75 h 3.75 11.25 3.75 11.25 3.75 3.75 V -45 -48.75 H 240 228.75 V -60 -71.25 H 240 251.25 255 266.25 270 281.25 V -60 -48.75 H 270 266.25 v 3.75 3.75 H 270 281.25 V -30 -18.75 H 270 266.25 v 3.75 3.75 H 270 281.25 V 0 11.25 H 270 258.75 255 243.75 240 228.75 V 0 -11.25 H 240 243.75 V -15 -18.75 H 240 228.75 225 213.75 210 206.25 v 3.75 3.75 H 210 221.25 V 0 11.25 H 210 206.25 V 15 18.75 H 210 221.25 225 236.25 V 30 41.25 H 225 213.75 210 206.25 V 45 56.25 60 63.75 h 3.75 3.75 V 60 48.75 H 225 236.25 V 60 63.75 h 3.75 3.75 V 60 48.75 H 255 266.25 V 60 63.75 h 3.75 3.75 V 60 48.75 45 41.25 H 270 258.75 255 243.75 V 30 18.75 H 255 266.25 270 281.25 285 296.25 300 311.25 315 326.25 V 30 41.25 H 315 303.75 300 296.25 V 45 56.25 60 63.75 h 3.75 3.75 V 60 48.75 H 315 326.25 V 60 63.75 h 3.75 3.75 V 60 48.75 H 345 356.25 V 60 63.75 h 3.75 3.75 V 60 48.75 45 41.25 H 360 348.75 345 333.75 V 30 18.75 H 345 356.25 360 363.75 V 15 11.25 H 360 348.75 V 0 -11.25 H 360 363.75 V -15 -18.75 H 360 348.75 345 333.75 330 326.25 v 3.75 3.75 H 330 341.25 V 0 11.25 H 330 318.75 315 303.75 300 288.75 V 0 -11.25 H 300 303.75 V -15 -18.75 H 300 288.75 V -30 -41.25 H 300 303.75 V -45 -48.75 H 300 288.75 V -60 -71.25 H 300 311.25 315 326.25 330 341.25 V -60 -48.75 H 330 326.25 v 3.75 3.75 h 3.75 11.25 3.75 11.25 3.75 3.75 V -45 -48.75 H 360 348.75 V -60 -71.25 H 360 371.25 v 7.5 H 360 356.25 v 3.75 3.75 H 360 371.25 V -45 -33.75 H 360 348.75 345 333.75 330 318.75 V -45 -56.25 H 330 333.75 V -60 -63.75 H 330 318.75 315 303.75 300 296.25 v 3.75 3.75 H 300 311.25 V -45 -33.75 H 300 296.25 v 3.75 3.75 H 300 311.25 V -15 -3.75 H 300 296.25 V 0 3.75 h 3.75 11.25 3.75 11.25 3.75 3.75 V 0 -3.75 H 330 318.75 V -15 -26.25 H 330 341.25 345 356.25 360 371.25 V -15 -3.75 H 360 356.25 V 0 3.75 H 360 371.25 V 15 26.25 H 360 348.75 345 341.25 V 30 33.75 H 345 356.25 360 371.25 V 45 56.25 60 71.25 H 360 348.75 V 60 56.25 H 345 341.25 V 60 71.25 H 330 318.75 V 60 56.25 H 315 311.25 V 60 71.25 H 300 288.75 V 60 48.75 45 33.75 H 300 311.25 315 318.75 V 30 26.25 H 315 303.75 300 288.75 285 273.75 270 258.75 255 251.25 V 30 33.75 H 255 266.25 270 281.25 V 45 56.25 60 71.25 H 270 258.75 V 60 56.25 H 255 251.25 V 60 71.25 H 240 228.75 V 60 56.25 H 225 221.25 V 60 71.25 H 210 198.75 V 60 48.75 45 33.75 H 210 221.25 225 228.75 V 30 26.25 H 225 213.75 210 198.75 V 15 3.75 H 210 213.75 V 0 -3.75 H 210 198.75 V -15 -26.25 H 210 221.25 225 236.25 240 251.25 V -15 -3.75 H 240 236.25 V 0 3.75 h 3.75 11.25 3.75 11.25 3.75 3.75 V 0 -3.75 H 270 258.75 V -15 -26.25 H 270 273.75 V -30 -33.75 H 270 258.75 V -45 -56.25 H 270 273.75 V -60 -63.75 H 270 258.75 255 243.75 240 236.25 v 3.75 3.75 H 240 251.25 V -45 -33.75 H 240 228.75 225 213.75 210 198.75 V -45 -56.25 H 210 213.75 V -60 -63.75 H 210 198.75 195 183.75 180 176.25 v 3.75 3.75 H 180 191.25 V -45 -33.75 H 180 168.75 165 153.75 150 138.75 V -45 -56.25 H 150 153.75 V -60 -63.75 H 150 138.75 135 123.75 120 116.25 v 3.75 3.75 H 120 131.25 V -45 -33.75 H 120 116.25 v 3.75 3.75 H 120 131.25 V -15 -3.75 H 120 116.25 V 0 3.75 h 3.75 11.25 3.75 11.25 3.75 3.75 V 0 -3.75 H 150 138.75 V -15 -26.25 H 150 161.25 165 176.25 180 191.25 V -15 -3.75 H 180 176.25 V 0 3.75 H 180 191.25 V 15 26.25 H 180 168.75 165 161.25 V 30 33.75 H 165 176.25 180 191.25 V 45 56.25 60 71.25 H 180 168.75 V 60 56.25 H 165 161.25 V 60 71.25 H 150 138.75 V 60 56.25 H 135 131.25 V 60 71.25 H 120 108.75 V 60 48.75 45 33.75 H 120 131.25 135 138.75 V 30 26.25 H 135 123.75 120 108.75 105 93.75 90 78.75 75 71.25 V 30 33.75 H 75 86.25 90 101.25 V 45 56.25 60 71.25 H 90 78.75 V 60 56.25 H 75 71.25 V 60 71.25 H 60 48.75 V 60 56.25 H 45 41.25 V 60 71.25 H 30 18.75 V 60 48.75 45 33.75 H 30 41.25 45 48.75 V 30 26.25 H 45 33.75 30 18.75 V 15 3.75 H 30 33.75 V 0 -3.75 H 30 18.75 V -15 -26.25 H 30 41.25 45 56.25 60 71.25 V -15 -3.75 H 60 56.25 V 0 3.75 H 60 71.25 75 86.25 90 93.75 V 0 -3.75 H 90 78.75 V -15 -26.25 H 90 93.75 V -30 -33.75 H 90 78.75 V -45 -56.25 H 90 93.75 V -60 -63.75 H 90 78.75 75 63.75 60 56.25 v 3.75 3.75 H 60 71.25 V -45 -33.75 H 60 48.75 45 33.75 30 18.75 V -45 -56.25 H 30 33.75 V -60 -63.75 H 30 18.75 15 3.75 0 -3.75 v 3.75 3.75 H 0 11.25 V -45 -33.75 H 0 -11.25 -15 -26.25 -30 -41.25 V -45 -56.25 H -30 -26.25 V -60 -63.75 H -30 -41.25 -45 -56.25 -60 -63.75 v 3.75 3.75 H -60 -48.75 V -45 -33.75 H -60 -63.75 v 3.75 3.75 H -60 -48.75 V -15 -3.75 H -60 -63.75 V 0 3.75 h 3.75 11.25 3.75 11.25 3.75 3.75 V 0 -3.75 H -30 -41.25 V -15 -26.25 H -30 -18.75 -15 -3.75 0 11.25 V -15 -3.75 H 0 -3.75 V 0 3.75 H 0 11.25 V 15 26.25 H 0 -11.25 -15 -18.75 V 30 33.75 H -15 -3.75 0 11.25 V 45 56.25 60 71.25 H 0 -11.25 V 60 56.25 H -15 -18.75 V 60 71.25 H -30 -41.25 V 60 56.25 H -45 -48.75 V 60 71.25 H -60 -71.25 V 60 48.75 45 33.75 H -60 -48.75 -45 -41.25 V 30 26.25 H -45 -56.25 -60 -71.25 -75 -86.25 -90 -101.25 -105 -108.75 V 30 33.75 h 3.75 11.25 3.75 11.25 V 45 56.25 60 71.25 H -90 -101.25 V 60 56.25 h -3.75 -3.75 V 60 71.25 H -120 -131.25 V 60 56.25 h -3.75 -3.75 V 60 71.25 H -150 -161.25 V 60 48.75 45 33.75 h 11.25 11.25 3.75 3.75 V 30 26.25 H -135 -146.25 -150 -161.25 V 15 3.75 h 11.25 3.75 V 0 -3.75 H -150 -161.25 V -15 -26.25 h 11.25 11.25 3.75 11.25 3.75 11.25 V -15 -3.75 H -120 -123.75 V 0 3.75 h 3.75 11.25 3.75 11.25 3.75 3.75 V 0 -3.75 H -90 -101.25 V -15 -26.25 H -90 -86.25 V -30 -33.75 H -90 -101.25 V -45 -56.25 H -90 -86.25 V -60 -63.75 h -3.75 -11.25 -3.75 -11.25 -3.75 -3.75 v 3.75 3.75 h 3.75 11.25 V -45 -33.75 H -120 -131.25 -135 -146.25 -150 -161.25 V -45 -56.25 h 11.25 3.75 V -60 -63.75 h -3.75 -11.25 -3.75 -11.25 -3.75 -3.75 v 3.75 3.75 h 3.75 11.25 V -45 -33.75 H -180 -191.25 -195 -206.25 -210 -221.25 V -45 -56.25 h 11.25 3.75 V -60 -63.75 h -3.75 -11.25 -3.75 -11.25 -3.75 -11.25 -3.75 -3.75 v 3.75 3.75 h 3.75 11.25 3.75 11.25 V -45 -33.75 -30 -18.75 H -240 -251.25 V -30 -33.75 h -3.75 -3.75 V -30 -18.75 -15 -3.75 0 3.75 h 3.75 3.75 V 0 -11.25 h 11.25 11.25 V 0 3.75 h 3.75 11.25 3.75 3.75 V 0 -3.75 H -210 -221.25 V -15 -26.25 h 11.25 11.25 3.75 11.25 3.75 11.25 V -15 -3.75 H -180 -183.75 V 0 3.75 h 3.75 11.25 V 15 26.25 H -180 -191.25 -195 -198.75 V 30 33.75 h 3.75 11.25 3.75 11.25 V 45 56.25 60 71.25 H -180 -191.25 V 60 56.25 h -3.75 -3.75 V 60 71.25 H -210 -221.25 V 60 56.25 h -3.75 -3.75 V 60 71.25 H -240 -251.25 V 60 48.75 45 33.75 h 11.25 11.25 3.75 3.75 V 30 26.25 h -3.75 -11.25 -3.75 -11.25 -3.75 -11.25 -3.75 -3.75 V 30 33.75 h 3.75 11.25 V 45 56.25 60 71.25 H -270 -281.25 V 60 56.25 h -3.75 -3.75 V 60 71.25 H -300 -311.25 V 60 48.75 45 33.75 h 11.25 3.75 V 30 26.25 h -3.75 -11.25 -3.75 -11.25 -3.75 -3.75 V 30 33.75 h 3.75 11.25 V 45 56.25 60 71.25 H -330 -341.25 V 60 56.25 h -3.75 -3.75 V 60 71.25 H -360 -371.25 V 60 48.75 45 33.75 h 11.25 3.75 V 30 26.25 H -360 -371.25 V 15 3.75 h 11.25 3.75 V 0 -3.75 H -360 -371.25 V -15 -26.25 h 11.25 11.25 3.75 11.25 3.75 11.25 V -15 -3.75 H -330 -333.75 V 0 3.75 h 3.75 11.25 3.75 11.25 3.75 11.25 3.75 3.75 V 0 -3.75 H -285 -296.25 -300 -311.25 V -15 -26.25 -30 -41.25 h 11.25 11.25 v 11.25 3.75 h 3.75 3.75 V -30 -41.25 -45 -56.25 -60 -63.75 h -3.75 -3.75 V -60 -48.75 H -300 -311.25 V -60 -63.75 h -3.75 -11.25 -3.75 -3.75 v 3.75 3.75 h 3.75 11.25 V -45 -33.75 H -330 -341.25 -345 -356.25 -360 -371.25 V -45 -56.25 h 11.25 3.75 V -60 -63.75 H -360 Z"
       fill="#f0e6d2"
       stroke="#000000"
       stroke-width="1"
       stroke-opacity="1"
       fill-opacity="1"
       visibility="visible"
       stroke-linecap="butt"
       stroke-linejoin="miter"
       stroke-miterlimit="4" />
  </g>
</svg>
